<svg version="1.1" id="Layer_1" xmlns="http://www.w3.org/2000/svg" xmlns:xlink="http://www.w3.org/1999/xlink" x="0px" y="0px"
	 width="100%" viewBox="0 0 195 195" enable-background="new 0 0 195 195" xml:space="preserve">
<path fill="#FFFDFE" opacity="1.000000" stroke="none" 
	d="
M109.000000,196.000000 
	C72.689651,196.000000 36.879295,196.000000 1.034472,196.000000 
	C1.034472,131.064682 1.034472,66.129349 1.034472,1.097004 
	C65.893509,1.097004 130.787216,1.097004 195.840454,1.097004 
	C195.840454,65.999687 195.840454,130.999802 195.840454,196.000000 
	C167.129639,196.000000 138.314819,196.000000 109.000000,196.000000 
M36.942856,131.824982 
	C41.828812,129.108124 46.854626,126.608246 51.543564,123.585747 
	C54.002392,122.000771 55.749954,121.681137 58.244270,123.402206 
	C75.179832,135.087738 75.234161,135.085876 91.566147,123.555573 
	C93.963501,121.863052 95.806404,121.726173 98.285126,123.435265 
	C115.119530,135.042709 115.179268,135.046646 131.605408,123.519753 
	C134.243362,121.668594 136.351898,121.650490 138.751404,123.686356 
	C140.901276,125.510452 143.047195,127.418358 145.461243,128.835510 
	C150.506409,131.797256 155.979935,133.371292 161.608795,130.796387 
	C163.123734,130.103378 164.780457,127.845512 164.865173,126.227104 
	C165.221558,119.418236 165.252640,112.568184 164.938232,105.754639 
	C164.566284,97.693916 160.268188,92.058189 152.935242,88.840622 
	C150.541031,87.790077 147.942444,87.205299 145.449051,86.411240 
	C145.326645,86.073227 145.122223,85.767303 145.118317,85.458824 
	C145.067474,81.463745 145.047455,77.468277 145.015106,73.472946 
	C144.956604,66.246658 141.496902,62.104942 135.438370,62.003597 
	C129.115448,61.897827 125.093880,66.235092 124.996201,73.365280 
	C124.935623,77.787712 124.984962,82.211647 124.984962,86.670120 
	C117.975464,86.670120 111.735710,86.670120 105.012611,86.670120 
	C105.012611,81.724236 105.072037,77.097359 104.998375,72.472603 
	C104.893684,65.899689 101.076279,61.977253 94.936974,62.003098 
	C88.840332,62.028763 85.092560,65.979973 84.999229,72.598595 
	C84.934158,77.213425 84.986694,81.829910 84.986694,86.587570 
	C78.044930,86.587570 71.687561,86.587570 65.447739,86.587570 
	C65.249710,85.859825 65.091370,85.544174 65.088509,85.227119 
	C65.050911,81.064682 65.067413,76.901573 65.006752,72.739555 
	C64.909187,66.045944 61.272415,62.087944 55.204060,62.003098 
	C48.859898,61.914394 45.074791,65.894806 44.995483,72.831039 
	C44.942799,77.438591 44.985489,82.047234 44.985489,86.489388 
	C29.715338,90.103821 24.987160,96.092667 24.983332,111.157822 
	C24.982231,115.487679 25.398199,119.868332 24.876122,124.134293 
	C24.249691,129.252914 26.942324,131.011505 31.135603,131.727737 
	C32.757912,132.004807 34.448803,131.880386 36.942856,131.824982 
M105.500000,177.001877 
	C121.645485,177.001740 137.791016,177.023468 153.936432,176.990204 
	C159.994034,176.977737 164.453125,174.334518 164.698090,169.496872 
	C165.173553,160.107346 164.837189,150.676697 164.837189,140.890961 
	C154.241516,143.378326 145.284393,140.943985 136.943863,135.181244 
	C136.021606,134.544037 133.575531,135.243835 132.335342,136.071503 
	C121.604462,143.233063 110.722908,143.844513 99.561234,137.234924 
	C98.011810,136.317413 96.589531,135.185181 95.213821,134.225861 
	C94.690788,134.400940 94.335953,134.436844 94.082924,134.616302 
	C80.565987,144.203064 70.878296,144.350311 56.877586,135.471619 
	C55.772308,134.770706 53.601486,135.148560 52.166992,135.678162 
	C47.382359,137.444611 42.850075,140.114243 37.945889,141.268219 
	C33.965759,142.204773 29.589622,141.458374 24.985075,141.458374 
	C24.985075,149.451050 24.969284,157.247910 24.989273,165.044678 
	C25.011730,173.804688 28.235117,176.993759 37.088551,176.998108 
	C59.559029,177.009125 82.029518,177.001846 105.500000,177.001877 
M52.958652,51.956524 
	C58.624325,52.557888 63.117996,50.535221 65.981178,45.609734 
	C68.847389,40.679024 68.099770,35.779076 65.227028,31.015860 
	C63.001865,27.326385 61.034634,23.479698 58.766785,19.818071 
	C56.356388,15.926299 53.619759,15.955344 51.196541,19.883997 
	C49.022339,23.408926 47.089569,27.081890 45.006310,30.663967 
	C39.561913,40.025356 42.124081,47.645912 52.958652,51.956524 
M107.017105,43.265491 
	C106.573532,39.440994 106.791367,35.376701 105.514328,31.854385 
	C104.011581,27.709555 101.276413,23.996077 98.959015,20.166130 
	C96.280151,15.738814 93.641014,15.829633 90.907867,20.409803 
	C88.698654,24.111979 86.537743,27.844891 84.440422,31.611507 
	C80.372787,38.916645 82.339607,46.896259 89.049561,50.553455 
	C95.704437,54.180634 102.641418,51.623932 107.017105,43.265491 
M147.424316,41.751942 
	C147.540253,40.603699 148.126083,39.227688 147.697464,38.343410 
	C144.400909,31.542456 141.261475,24.618979 137.310959,18.202908 
	C135.593338,15.413295 132.815567,17.175993 131.358337,19.602333 
	C128.798126,23.865152 126.239784,28.142864 123.968193,32.562134 
	C120.220993,39.852104 122.922714,47.824276 130.004608,51.009674 
	C137.030197,54.169746 144.193314,50.632355 147.424316,41.751942 
z"/>
<path fill="#FF6AB5" opacity="1.000000" stroke="none" 
	d="
M36.525650,131.881943 
	C34.448803,131.880386 32.757912,132.004807 31.135603,131.727737 
	C26.942324,131.011505 24.249691,129.252914 24.876122,124.134293 
	C25.398199,119.868332 24.982231,115.487679 24.983332,111.157822 
	C24.987160,96.092667 29.715338,90.103821 44.985489,86.489388 
	C44.985489,82.047234 44.942799,77.438591 44.995483,72.831039 
	C45.074791,65.894806 48.859898,61.914394 55.204060,62.003098 
	C61.272415,62.087944 64.909187,66.045944 65.006752,72.739555 
	C65.067413,76.901573 65.050911,81.064682 65.088509,85.227119 
	C65.091370,85.544174 65.249710,85.859825 65.447739,86.587570 
	C71.687561,86.587570 78.044930,86.587570 84.986694,86.587570 
	C84.986694,81.829910 84.934158,77.213425 84.999229,72.598595 
	C85.092560,65.979973 88.840332,62.028763 94.936974,62.003098 
	C101.076279,61.977253 104.893684,65.899689 104.998375,72.472603 
	C105.072037,77.097359 105.012611,81.724236 105.012611,86.670120 
	C111.735710,86.670120 117.975464,86.670120 124.984962,86.670120 
	C124.984962,82.211647 124.935623,77.787712 124.996201,73.365280 
	C125.093880,66.235092 129.115448,61.897827 135.438370,62.003597 
	C141.496902,62.104942 144.956604,66.246658 145.015106,73.472946 
	C145.047455,77.468277 145.067474,81.463745 145.118317,85.458824 
	C145.122223,85.767303 145.326645,86.073227 145.449051,86.411240 
	C147.942444,87.205299 150.541031,87.790077 152.935242,88.840622 
	C160.268188,92.058189 164.566284,97.693916 164.938232,105.754639 
	C165.252640,112.568184 165.221558,119.418236 164.865173,126.227104 
	C164.780457,127.845512 163.123734,130.103378 161.608795,130.796387 
	C155.979935,133.371292 150.506409,131.797256 145.461243,128.835510 
	C143.047195,127.418358 140.901276,125.510452 138.751404,123.686356 
	C136.351898,121.650490 134.243362,121.668594 131.605408,123.519753 
	C115.179268,135.046646 115.119530,135.042709 98.285126,123.435265 
	C95.806404,121.726173 93.963501,121.863052 91.566147,123.555573 
	C75.234161,135.085876 75.179832,135.087738 58.244270,123.402206 
	C55.749954,121.681137 54.002392,122.000771 51.543564,123.585747 
	C46.854626,126.608246 41.828812,129.108124 36.525650,131.881943 
z"/>
<path fill="#FF6AB4" opacity="1.000000" stroke="none" 
	d="
M105.000000,177.001877 
	C82.029518,177.001846 59.559029,177.009125 37.088551,176.998108 
	C28.235117,176.993759 25.011730,173.804688 24.989273,165.044678 
	C24.969284,157.247910 24.985075,149.451050 24.985075,141.458374 
	C29.589622,141.458374 33.965759,142.204773 37.945889,141.268219 
	C42.850075,140.114243 47.382359,137.444611 52.166992,135.678162 
	C53.601486,135.148560 55.772308,134.770706 56.877586,135.471619 
	C70.878296,144.350311 80.565987,144.203064 94.082924,134.616302 
	C94.335953,134.436844 94.690788,134.400940 95.213821,134.225861 
	C96.589531,135.185181 98.011810,136.317413 99.561234,137.234924 
	C110.722908,143.844513 121.604462,143.233063 132.335342,136.071503 
	C133.575531,135.243835 136.021606,134.544037 136.943863,135.181244 
	C145.284393,140.943985 154.241516,143.378326 164.837189,140.890961 
	C164.837189,150.676697 165.173553,160.107346 164.698090,169.496872 
	C164.453125,174.334518 159.994034,176.977737 153.936432,176.990204 
	C137.791016,177.023468 121.645485,177.001740 105.000000,177.001877 
z"/>
<path fill="#FF6DB6" opacity="1.000000" stroke="none" 
	d="
M52.555099,51.898422 
	C42.124081,47.645912 39.561913,40.025356 45.006310,30.663967 
	C47.089569,27.081890 49.022339,23.408926 51.196541,19.883997 
	C53.619759,15.955344 56.356388,15.926299 58.766785,19.818071 
	C61.034634,23.479698 63.001865,27.326385 65.227028,31.015860 
	C68.099770,35.779076 68.847389,40.679024 65.981178,45.609734 
	C63.117996,50.535221 58.624325,52.557888 52.555099,51.898422 
z"/>
<path fill="#FF6DB6" opacity="1.000000" stroke="none" 
	d="
M106.908966,43.638260 
	C102.641418,51.623932 95.704437,54.180634 89.049561,50.553455 
	C82.339607,46.896259 80.372787,38.916645 84.440422,31.611507 
	C86.537743,27.844891 88.698654,24.111979 90.907867,20.409803 
	C93.641014,15.829633 96.280151,15.738814 98.959015,20.166130 
	C101.276413,23.996077 104.011581,27.709555 105.514328,31.854385 
	C106.791367,35.376701 106.573532,39.440994 106.908966,43.638260 
z"/>
<path fill="#FF6DB6" opacity="1.000000" stroke="none" 
	d="
M147.318298,42.131935 
	C144.193314,50.632355 137.030197,54.169746 130.004608,51.009674 
	C122.922714,47.824276 120.220993,39.852104 123.968193,32.562134 
	C126.239784,28.142864 128.798126,23.865152 131.358337,19.602333 
	C132.815567,17.175993 135.593338,15.413295 137.310959,18.202908 
	C141.261475,24.618979 144.400909,31.542456 147.697464,38.343410 
	C148.126083,39.227688 147.540253,40.603699 147.318298,42.131935 
z"/>
</svg>