<?xml version="1.0" encoding="UTF-8"?>
<svg version="1.1" xmlns="http://www.w3.org/2000/svg" width="957" height="601">
<path d="M0 0 C315.81 0 631.62 0 957 0 C957 198.33 957 396.66 957 601 C641.19 601 325.38 601 0 601 C0 402.67 0 204.34 0 0 Z " fill="#FEE7EF" transform="translate(0,0)"/>
<path d="M0 0 C0.802099 -0.00189835 1.604198 -0.00379669 2.43060303 -0.00575256 C5.07956752 -0.00945429 7.72825717 0.00123661 10.37719727 0.01245117 C12.22038236 0.0136436 14.06356807 0.014096 15.90675354 0.01383972 C19.76941738 0.01540363 23.63198841 0.02368538 27.49462891 0.03710938 C32.44215364 0.05408707 37.38957628 0.05792395 42.33712673 0.05716419 C46.14354931 0.05743636 49.94994965 0.06292533 53.75636482 0.07016563 C55.5803924 0.07334462 57.40442249 0.07531791 59.22845268 0.07605934 C61.77994944 0.07823174 64.33133888 0.08699581 66.8828125 0.09765625 C67.63466324 0.09720306 68.38651398 0.09674988 69.16114807 0.09628296 C72.91552497 0.11917517 76.33919 0.47837487 80.00610352 1.24291992 C80.33610352 0.91291992 80.66610352 0.58291992 81.00610352 0.24291992 C83.38801719 0.12671167 85.74135043 0.07494183 88.12451172 0.06591797 C88.86925751 0.05934677 89.6140033 0.05277557 90.38131714 0.04600525 C92.85650726 0.02622548 95.33163656 0.01459894 97.80688477 0.00463867 C98.65048239 0.00056314 99.49408001 -0.00351238 100.3632412 -0.00771141 C104.82874687 -0.02859278 109.29422164 -0.04288513 113.75976562 -0.05224609 C118.37697124 -0.06331098 122.99369495 -0.09770557 127.61073017 -0.13741779 C131.15633552 -0.16354255 134.7018254 -0.17193425 138.24751854 -0.17552757 C139.94959961 -0.18040481 141.65167513 -0.19205109 143.35366249 -0.21056557 C145.736002 -0.23486849 148.11708666 -0.2340087 150.49951172 -0.22705078 C151.20356644 -0.23986084 151.90762115 -0.2526709 152.63301086 -0.26586914 C155.93478299 -0.23070213 157.73941576 0.0497645 160.44192505 2.00712585 C162.14608689 4.44300835 162.51447826 5.55367858 162.53955078 8.4855957 C162.56330528 9.72806564 162.56330528 9.72806564 162.58753967 10.99563599 C162.5825798 11.88419281 162.57761993 12.77274963 162.57250977 13.68823242 C162.57870834 14.61328583 162.58490692 15.53833923 162.59129333 16.49142456 C162.59839359 18.44992014 162.5952139 20.40847605 162.58251953 22.36694336 C162.56874607 25.33717897 162.60260912 28.3042049 162.64086914 31.27416992 C162.71696593 50.07275528 162.71696593 50.07275528 157.00610352 57.24291992 C152.30660675 61.82779481 148.43675302 63.49022261 141.90884399 63.51034546 C140.65830734 63.51887543 139.40777069 63.5274054 138.11933899 63.53619385 C136.73605334 63.53549484 135.35276779 63.53457179 133.96948242 63.53344727 C132.51066239 63.53943255 131.05184553 63.54623809 129.59303284 63.55380249 C125.63223241 63.57146976 121.67151841 63.57615817 117.71068239 63.57743406 C115.23548134 63.5788558 112.76030225 63.58312583 110.28510666 63.5884285 C101.64814611 63.60693113 93.01124729 63.61509881 84.37426758 63.61352539 C76.32624 63.6123239 68.27848057 63.63342698 60.23052084 63.66501272 C53.31828889 63.69117332 46.40614454 63.70189278 39.49386346 63.70061457 C35.36661819 63.70010487 31.23961123 63.70579219 27.11241531 63.72697067 C23.2299242 63.7463496 19.3478988 63.74648024 15.46539116 63.73193741 C14.04240043 63.72984775 12.61938057 63.73455966 11.19643974 63.74665833 C-2.10297322 63.85239237 -2.10297322 63.85239237 -6.99389648 59.24291992 C-12.70573658 53.20468896 -14.46083225 47.13905708 -14.35717773 39.00073242 C-14.35767624 38.2329245 -14.35817474 37.46511658 -14.35868835 36.67404175 C-14.35636084 35.05879107 -14.34671102 33.44353586 -14.33007812 31.82836914 C-14.30652796 29.38158004 -14.30952235 26.93588719 -14.31616211 24.48901367 C-14.2918896 8.76484325 -14.2918896 8.76484325 -11.99389648 2.24291992 C-8.44317019 -0.4654067 -4.2641062 -0.03178534 0 0 Z " fill="#FE8FC6" transform="translate(407.993896484375,174.757080078125)"/>
<path d="M0 0 C1.94324661 -0.01691895 1.94324661 -0.01691895 3.92575073 -0.03417969 C5.35943827 -0.02640264 6.7931236 -0.01820997 8.22680664 -0.00964355 C9.73813552 -0.01506426 11.24945912 -0.02218664 12.76077271 -0.03088379 C16.86411101 -0.04912645 20.96704724 -0.0420459 25.07039261 -0.02936745 C29.36334573 -0.01924459 33.65626429 -0.02863113 37.94921875 -0.03491211 C45.15867294 -0.04219061 52.36796326 -0.03259555 59.57739258 -0.0135498 C67.91404446 0.0082194 76.25030505 0.00116817 84.58694744 -0.02085543 C91.7429041 -0.0390037 98.89874292 -0.04157058 106.05471516 -0.03110075 C110.32941922 -0.02486264 114.60393933 -0.02403882 118.87863159 -0.0372467 C122.89740197 -0.04879635 126.91566758 -0.04079617 130.93438339 -0.01766968 C132.40980058 -0.01237778 133.88526021 -0.01390465 135.36066055 -0.02272034 C137.37340026 -0.03363846 139.38623274 -0.01752358 141.39892578 0 C142.52569229 0.0015081 143.6524588 0.0030162 144.81336975 0.00457001 C148.34650958 0.62078622 149.5265895 1.7093598 151.69946289 4.50793457 C152.18048096 6.73529053 152.18048096 6.73529053 152.15356445 9.18469238 C152.15326233 10.10534485 152.15296021 11.02599731 152.15264893 11.97454834 C152.13200378 12.96009705 152.11135864 13.94564575 152.09008789 14.96105957 C152.0844281 15.97641785 152.07876831 16.99177612 152.07293701 18.03790283 C152.05056042 21.27839458 152.00036044 24.51777747 151.94946289 27.75793457 C151.9293996 29.95583526 151.91114854 32.15375329 151.89477539 34.35168457 C151.8506916 39.73747907 151.78376662 45.1226276 151.69946289 50.50793457 C150.78348831 50.51824203 149.86751373 50.5285495 148.92378235 50.53916931 C140.28690062 50.6371921 131.65008649 50.73971337 123.01331806 50.84727383 C118.5731938 50.90241186 114.13306284 50.9558171 109.69287109 51.00524902 C105.4069629 51.05302731 101.12113252 51.10537464 96.83531761 51.16087532 C95.20110197 51.18123797 93.56686505 51.19996091 91.93261147 51.21700859 C89.64168238 51.24118788 87.35089868 51.27122328 85.06005859 51.3026123 C83.1048101 51.32592873 83.1048101 51.32592873 81.11006165 51.34971619 C78.17739771 51.48576307 75.5629171 51.92955784 72.69946289 52.50793457 C72.36946289 52.17793457 72.03946289 51.84793457 71.69946289 51.50793457 C69.1444698 51.38290815 66.61515647 51.3218928 64.05859375 51.3026123 C63.25865494 51.29271271 62.45871613 51.28281311 61.63453674 51.27261353 C58.97782397 51.24090539 56.32109329 51.21620449 53.66430664 51.19152832 C51.82727074 51.17096682 49.99023965 51.14997057 48.1532135 51.1285553 C43.30841971 51.07325153 38.46358264 51.02387902 33.61871338 50.97570801 C28.67879364 50.92555346 23.73893706 50.86983591 18.79907227 50.8145752 C9.09925638 50.70689211 -0.60061425 50.60546984 -10.30053711 50.50793457 C-10.40194204 44.03020597 -10.47200428 37.55268196 -10.52026367 31.07434082 C-10.5403813 28.87048697 -10.56767882 26.6666865 -10.60229492 24.4630127 C-10.65080544 21.29556101 -10.67350447 18.12881489 -10.69116211 14.96105957 C-10.71180725 13.97551086 -10.73245239 12.98996216 -10.75372314 11.97454834 C-10.75402527 11.05389587 -10.75432739 10.13324341 -10.75463867 9.18469238 C-10.76352112 8.37638977 -10.77240356 7.56808716 -10.78155518 6.73529053 C-9.5233302 0.90907508 -5.33492199 0.00714044 0 0 Z " fill="#DCBCF4" transform="translate(411.300537109375,124.4920654296875)"/>
<path d="M0 0 C1.17810745 -0.00700928 2.3562149 -0.01401855 3.57002258 -0.02124023 C6.78514351 -0.03578107 9.99960058 -0.03244006 13.21471095 -0.01972389 C16.59022138 -0.00955122 19.96568949 -0.01900157 23.34120178 -0.02526855 C29.00944911 -0.03253363 34.67748756 -0.02298849 40.34570312 -0.00390625 C46.88340098 0.01785005 53.42059955 0.01081601 59.95828527 -0.01121187 C65.58657357 -0.02941119 71.21471226 -0.03190188 76.8430205 -0.0214572 C80.19790562 -0.01524555 83.55236951 -0.01590949 86.90727043 -0.02760315 C90.65076064 -0.0377873 94.39329921 -0.0222388 98.13671875 0 C99.78826462 -0.01214539 99.78826462 -0.01214539 101.47317505 -0.02453613 C108.97325857 0.05780279 114.43842147 1.19450968 120.19165039 6.36914062 C120.64668945 6.954375 121.10172852 7.53960937 121.57055664 8.14257812 C122.04364258 8.73296875 122.51672852 9.32335937 123.00415039 9.93164062 C129.50943927 19.07055856 125.13305664 32.2997974 125.13305664 43.51757812 C75.63305664 43.51757812 26.13305664 43.51757812 -24.86694336 43.51757812 C-24.86694336 13.51757812 -24.86694336 13.51757812 -18.86694336 4.51757812 C-12.94940032 -0.26083536 -7.40774278 -0.0543762 0 0 Z " fill="#FE77BA" transform="translate(431.866943359375,81.482421875)"/>
<path d="M0 0 C1.62109375 1.16796875 1.62109375 1.16796875 2.9609375 2.8046875 C5.42250758 4.82607093 7.54542462 4.37301336 10.62109375 4.16796875 C12.02422966 27.27191209 12.02422966 27.27191209 5.890625 35.94140625 C0.95303408 40.78551438 -5.54891738 43.35338292 -12.37890625 44.16796875 C-21.44240061 42.88827848 -27.00196476 39.50677549 -32.76953125 32.5078125 C-36.53180186 27.03790936 -36.0314282 20.54818336 -35.37890625 14.16796875 C-33.62598184 8.89517213 -30.98191011 3.45582865 -26.37890625 0.16796875 C-17.89263508 -4.07516684 -8.42779152 -4.73043782 0 0 Z " fill="#F6CEE5" transform="translate(150.37890625,482.83203125)"/>
<path d="M0 0 C0 13.2 0 26.4 0 40 C4.99047058 36.67301961 8.2681075 34.46006664 12 30 C12.34922228 27.24153878 12.34922228 27.24153878 11 25 C9.03241727 23.63979849 9.03241727 23.63979849 7 23 C7 22.67 7 22.34 7 22 C12.94 22 18.88 22 25 22 C22.07500316 24.92499684 19.0153439 27.54030033 15.83984375 30.18359375 C13.8601326 32.13808565 12.86966536 33.35883741 12 36 C12.8786402 38.54392015 12.8786402 38.54392015 14.54296875 41.09765625 C15.12240234 42.06380859 15.70183594 43.02996094 16.29882812 44.02539062 C16.92208984 45.02763672 17.54535156 46.02988281 18.1875 47.0625 C18.79142578 48.06861328 19.39535156 49.07472656 20.01757812 50.11132812 C22.9755011 55.18971996 22.9755011 55.18971996 26.70043945 59.68530273 C28 61 28 61 28 63 C21.73 63 15.46 63 9 63 C9 62.34 9 61.68 9 61 C9.99 61 10.98 61 12 61 C10.38395881 58.01588868 8.75569271 55.0386265 7.125 52.0625 C6.66480469 51.21236328 6.20460938 50.36222656 5.73046875 49.48632812 C5.06337891 48.27299805 5.06337891 48.27299805 4.3828125 47.03515625 C3.97434082 46.2862915 3.56586914 45.53742676 3.14501953 44.76586914 C2.11097898 42.84417254 2.11097898 42.84417254 0 42 C0.33 47.94 0.66 53.88 1 60 C2.485 60.495 2.485 60.495 4 61 C4 61.66 4 62.32 4 63 C-2.93 63 -9.86 63 -17 63 C-17 62.34 -17 61.68 -17 61 C-15.68 60.34 -14.36 59.68 -13 59 C-12.9747101 51.48861406 -12.95715859 43.97723903 -12.94506836 36.46582031 C-12.94002983 33.90884999 -12.93319893 31.35188257 -12.92456055 28.79492188 C-12.91247398 25.12629483 -12.90676699 21.45770577 -12.90234375 17.7890625 C-12.89718246 16.64007477 -12.89202118 15.49108704 -12.88670349 14.30728149 C-12.88662796 13.2463327 -12.88655243 12.18538391 -12.88647461 11.09228516 C-12.884254 10.15518707 -12.88203339 9.21808899 -12.87974548 8.25259399 C-12.85172957 5.96412698 -12.85172957 5.96412698 -14 4 C-14.99 3.67 -15.98 3.34 -17 3 C-17 2.34 -17 1.68 -17 1 C-14.54171921 0.83252588 -12.08338135 0.6659856 -9.625 0.5 C-8.92632813 0.45230469 -8.22765625 0.40460938 -7.5078125 0.35546875 C-2.2265625 0 -2.2265625 0 0 0 Z " fill="#FF6EB6" transform="translate(526,373)"/>
<path d="M0 0 C1.98 0 3.96 0 6 0 C10.39082775 9.17912789 13.98541665 18.61006093 17.5625 28.125 C21.85134421 43.32405825 21.85134421 43.32405825 30 55 C30 55.66 30 56.32 30 57 C22.08 57 14.16 57 6 57 C6 56.34 6 55.68 6 55 C7.65 55 9.3 55 11 55 C10.73844293 53.4983547 10.46513114 51.9987567 10.1875 50.5 C10.03667969 49.6646875 9.88585937 48.829375 9.73046875 47.96875 C8.80775406 44.2186796 7.35601084 40.6160289 6 37 C0.06 36.67 -5.88 36.34 -12 36 C-13.7181281 42.77311611 -13.7181281 42.77311611 -14.625 49.5 C-14.69976562 50.3559375 -14.77453125 51.211875 -14.8515625 52.09375 C-14.90054687 52.7228125 -14.94953125 53.351875 -15 54 C-13.02 54.33 -11.04 54.66 -9 55 C-9 55.66 -9 56.32 -9 57 C-14.28 57 -19.56 57 -25 57 C-25 56.34 -25 55.68 -25 55 C-24.27167969 54.36578125 -23.54335938 53.7315625 -22.79296875 53.078125 C-18.74308519 49.16632183 -17.25599494 43.91747993 -15.3125 38.75 C-14.44701094 36.51677344 -13.58111265 34.28370543 -12.71484375 32.05078125 C-12.27253418 30.89787598 -11.83022461 29.7449707 -11.37451172 28.55712891 C-9.0965173 22.66185738 -6.73205585 16.80149852 -4.375 10.9375 C-3.52824293 8.82177579 -2.68185102 6.70590537 -1.8359375 4.58984375 C-1.22395833 3.05989583 -0.61197917 1.52994792 0 0 Z " fill="#FF6DB5" transform="translate(320,379)"/>
<path d="M0 0 C13.86 0.495 13.86 0.495 28 1 C28 1.33 28 1.66 28 2 C25.94921875 2.22786458 23.8984375 2.45572917 21.84765625 2.68359375 C19.98859771 2.81886614 19.98859771 2.81886614 19 4 C18.84259395 5.70563778 18.74906608 7.41727244 18.68359375 9.12890625 C18.64169922 10.16337891 18.59980469 11.19785156 18.55664062 12.26367188 C18.51732422 13.35228516 18.47800781 14.44089844 18.4375 15.5625 C18.39431641 16.65498047 18.35113281 17.74746094 18.30664062 18.87304688 C18.20017932 21.58189564 18.09816484 24.29083992 18 27 C20.31 27 22.62 27 25 27 C25 27.33 25 27.66 25 28 C22.69 28 20.38 28 18 28 C18.13813025 32.14612814 18.28678859 36.29181162 18.4375 40.4375 C18.47681641 41.62150391 18.51613281 42.80550781 18.55664062 44.02539062 C18.59853516 45.15009766 18.64042969 46.27480469 18.68359375 47.43359375 C18.72025146 48.47572021 18.75690918 49.51784668 18.79467773 50.59155273 C18.73515341 52.9499826 18.73515341 52.9499826 20 54 C25.97972892 54.67715159 25.97972892 54.67715159 30.9375 51.625 C34.82355869 46.67910713 34.5133813 42.13402141 34 36 C32.62747293 32.88062031 32.020457 31.5102285 29 30 C29 29.34 29 28.68 29 28 C34.99271569 27.50060703 38.96975047 28.68287233 44 32 C46.58646323 34.26315532 47.79847916 35.72833399 48.33984375 39.14453125 C48.53678431 43.89473762 48.12134941 47.23285416 45 51 C39.88150365 55.9763159 34.21194705 57.22820314 27.17555237 57.22659302 C26.48984665 57.21627045 25.80414093 57.20594788 25.09765625 57.1953125 C24.3750914 57.1924826 23.65252655 57.18965271 22.9080658 57.18673706 C20.62603384 57.17564386 18.34441103 57.15056088 16.0625 57.125 C14.50456301 57.11495611 12.94661979 57.10583274 11.38867188 57.09765625 C7.59229301 57.07574033 3.7962156 57.04128738 0 57 C0 56.34 0 55.68 0 55 C1.65 54.34 3.3 53.68 5 53 C5 36.83 5 20.66 5 4 C2.525 3.01 2.525 3.01 0 2 C0 1.34 0 0.68 0 0 Z " fill="#FF6AB4" transform="translate(415,379)"/>
<path d="M0 0 C0.71220703 -0.020625 1.42441406 -0.04125 2.15820312 -0.0625 C6.70702317 -0.09616379 9.69299035 0.26366859 13.1875 3.25 C15.9386605 7.78987155 16.54808566 11.12431836 16.48046875 16.3984375 C16.47622391 17.05582916 16.47197906 17.71322083 16.46760559 18.39053345 C16.45094977 20.46912391 16.4133262 22.54670774 16.375 24.625 C16.35993605 26.04295464 16.34625065 27.46092464 16.33398438 28.87890625 C16.30109038 32.3362589 16.24940165 35.79303103 16.1875 39.25 C17.8375 39.25 19.4875 39.25 21.1875 39.25 C18.27484805 42.65271719 15.82225999 43.07500114 11.484375 43.46484375 C7.55194594 43.0970145 5.84736624 41.04626964 3.1875 38.25 C2.011875 39.2090625 2.011875 39.2090625 0.8125 40.1875 C-2.52296368 42.80822147 -3.96706159 43.46003714 -8.125 43.1875 C-11.5413864 42.75218625 -13.51106087 42.1723482 -15.875 39.625 C-18.14030768 35.67898017 -18.54480839 33.72521795 -17.8125 29.25 C-15.32129739 24.59253424 -11.89311303 23.13443233 -7.20703125 21.23046875 C-3.63774799 19.76898409 -0.24843968 17.99920565 3.1875 16.25 C3.26864106 14.47992286 3.32675505 12.70877902 3.375 10.9375 C3.40980469 9.95136719 3.44460938 8.96523438 3.48046875 7.94921875 C3.4092242 5.2436483 3.4092242 5.2436483 1.875 3.40625 C-0.6421833 1.6815133 -2.84742731 2.05232849 -5.8125 2.25 C-5.4825 2.765625 -5.1525 3.28125 -4.8125 3.8125 C-3.45875996 7.11224134 -3.48566064 9.72013492 -3.8125 13.25 C-7.28292703 15.56361802 -8.73084173 15.76020728 -12.8125 15.25 C-15.08143973 13.20795425 -15.69259912 11.76957047 -16.375 8.8125 C-15.511672 4.87956132 -12.98390427 3.53341107 -9.8125 1.25 C-6.69863918 -0.30693041 -3.41505068 0.02432805 0 0 Z " fill="#FF6EB6" transform="translate(485.8125,393.75)"/>
<path d="M0 0 C4 4.75 4 4.75 4 7 C9.18048216 9.68617593 13.25756517 11.24862739 19.16609192 11.27415466 C21.02700218 11.28911736 21.02700218 11.28911736 22.92550659 11.30438232 C24.29254138 11.30527803 25.65957633 11.30594165 27.02661133 11.30639648 C28.47248257 11.31402164 29.91834976 11.32244975 31.36421204 11.33161926 C35.28582352 11.35353641 39.20735703 11.36235943 43.12902284 11.36744571 C45.58129627 11.37109266 48.03354938 11.37733448 50.48581505 11.3844471 C59.04727447 11.40893219 67.60867338 11.4219914 76.17016602 11.42553711 C84.14040925 11.42917139 92.11026716 11.45906122 100.08039266 11.50094169 C106.93153059 11.53567531 113.782541 11.55108608 120.63376635 11.55178314 C124.72200197 11.55257493 128.80984493 11.561268 132.89798927 11.58978081 C136.74527941 11.61601447 140.59185283 11.61813781 144.43919182 11.60212517 C145.84683932 11.60031483 147.25452853 11.606964 148.66208649 11.62294388 C156.54918389 11.70698768 163.01991045 11.63652011 169 6 C170.55014673 4.06261492 171.74747399 2.15434474 173 0 C173.33 0 173.66 0 174 0 C173.5087255 6.14093127 172.14182564 10.12648822 167.52140236 14.35232449 C161.00409249 19.09972662 154.2879811 18.70095112 146.50927734 18.63110352 C145.04986198 18.63624848 143.59045284 18.64353411 142.13105774 18.65278625 C138.1868034 18.67123215 134.24322879 18.65840675 130.29900312 18.63869596 C126.16316464 18.62225764 122.02736746 18.63112925 117.89151001 18.63621521 C110.94969883 18.64072939 104.0081577 18.62490593 97.06640625 18.59692383 C89.0477946 18.5648496 81.02966921 18.56489956 73.01102293 18.5821386 C65.28491153 18.59801474 57.55897793 18.5912648 49.8328743 18.57420158 C46.54988479 18.56734016 43.2670382 18.56835406 39.98405075 18.57574654 C36.1178565 18.58342107 32.2522143 18.5712459 28.38611412 18.54389763 C26.96959382 18.5370258 25.55302184 18.53690298 24.13650322 18.54411316 C10.88185523 18.60379497 10.88185523 18.60379497 6 14 C2.72618675 10.36242972 0.10155016 7.23410358 -0.125 2.25 C-0.063125 1.13625 -0.063125 1.13625 0 0 Z " fill="#E75B9D" transform="translate(395,220)"/>
<path d="M0 0 C4.145697 -0.0879568 8.29115012 -0.14071153 12.4375 -0.1875 C13.60216797 -0.21263672 14.76683594 -0.23777344 15.96679688 -0.26367188 C23.20134846 -0.32480893 30.67115953 -0.34588631 36.65039062 4.27563477 C39.19211971 6.92942141 39.9920234 8.94316674 40.5 12.5625 C39.78434598 17.48262137 38.20151176 19.86172571 34.625 23.25 C31.96794373 25.02137085 30.14246444 25.64086121 27 26 C27 26.66 27 27.32 27 28 C26.34 28 25.68 28 25 28 C25 28.66 25 29.32 25 30 C25.61875 30.2475 26.2375 30.495 26.875 30.75 C29.46127312 32.27133713 29.90932831 33.2350516 31 36 C31.6949651 41.34961508 31.65184874 45.71878006 29.1875 50.5625 C27.01106175 52.98767405 25.35937599 54.81695531 22.02734375 55.265625 C16.22222222 55.22222222 16.22222222 55.22222222 14 53 C13.74603271 50.91271973 13.74603271 50.91271973 13.74121094 48.30664062 C13.73490662 47.33223022 13.72860229 46.35781982 13.72210693 45.35388184 C13.7261554 44.29866333 13.73020386 43.24344482 13.734375 42.15625 C13.73246155 41.07621704 13.7305481 39.99618408 13.72857666 38.88342285 C13.72721393 36.59692146 13.73091648 34.31041236 13.73925781 32.02392578 C13.74995588 28.51447245 13.73936527 25.00553107 13.7265625 21.49609375 C13.72788408 19.2786447 13.73044644 17.06119597 13.734375 14.84375 C13.73032654 13.78853149 13.72627808 12.73331299 13.72210693 11.64611816 C13.72841125 10.67170776 13.73471558 9.69729736 13.74121094 8.69335938 C13.74359772 7.40335022 13.74359772 7.40335022 13.74603271 6.08728027 C14 4 14 4 16 2 C10.72 1.67 5.44 1.34 0 1 C0 0.67 0 0.34 0 0 Z " fill="#FF72B8" transform="translate(419,379)"/>
<path d="M0 0 C5.07696057 5.07696057 5.375 8.05946586 5.375 15.375 C-2.215 15.375 -9.805 15.375 -17.625 15.375 C-16.26355502 24.63613387 -16.26355502 24.63613387 -12.625 32.375 C-9.15825153 34.10837424 -5.40623445 33.98994124 -1.625 33.375 C1.31473281 31.02081624 1.31473281 31.02081624 3.375 28.375 C4.035 28.375 4.695 28.375 5.375 28.375 C4.12284899 34.21837138 1.15600896 37.10602506 -3.625 40.375 C-8.46936896 41.98978965 -13.74230346 42.29347913 -18.66015625 40.7265625 C-23.17423093 38.40503838 -26.34874866 34.89928469 -28.625 30.375 C-30.83302313 21.79767938 -30.71532173 13.26830498 -26.21875 5.51171875 C-19.94283051 -2.90232037 -9.37778066 -4.20383271 0 0 Z " fill="#FF6DB6" transform="translate(584.625,395.625)"/>
<path d="M0 0 C1.0904811 0.00092179 2.1809622 0.00184359 3.30448818 0.00279331 C4.55115765 0.00141865 5.79782711 0.00004398 7.08227444 -0.00137234 C8.47653127 0.00216727 9.87078785 0.00580209 11.26504421 0.00952244 C12.72330123 0.0098043 14.18155839 0.00964659 15.63981533 0.00907993 C19.61071618 0.00879193 23.58158708 0.01468906 27.55248094 0.02165389 C31.69783233 0.02788702 35.84318434 0.02849119 39.9885397 0.0296793 C47.84377459 0.03279274 55.69899564 0.04100629 63.55422443 0.05102879 C72.49482531 0.06218954 81.43542684 0.06770028 90.37603295 0.07272422 C108.77255694 0.0831889 127.16906802 0.10078858 145.56558132 0.12304783 C146.12808132 2.06054783 146.12808132 2.06054783 146.56558132 4.12304783 C145.56558132 5.12304783 145.56558132 5.12304783 143.67777061 5.24609566 C142.42920202 5.24471297 142.42920202 5.24471297 141.15540981 5.24330235 C140.20323574 5.24467701 139.25106167 5.24605167 138.27003384 5.24746799 C137.21699566 5.24387272 136.16395748 5.24027744 135.07900906 5.23657322 C133.97670956 5.23671925 132.87441006 5.23686527 131.73870754 5.23701572 C128.0755104 5.23631604 124.41236339 5.22852107 120.74917507 5.22070408 C118.21711664 5.2188401 115.68505785 5.2174161 113.15299892 5.21641636 C107.15709883 5.21298129 101.16122043 5.20509052 95.16532904 5.19506687 C88.34077074 5.1839046 81.5162116 5.178395 74.69164646 5.17337143 C60.64961468 5.16290787 46.60759899 5.14530913 32.56558132 5.12304783 C32.56558132 6.77304783 32.56558132 8.42304783 32.56558132 10.12304783 C27.81558132 11.24804783 27.81558132 11.24804783 25.56558132 10.12304783 C25.56558132 8.80304783 25.56558132 7.48304783 25.56558132 6.12304783 C11.70558132 5.62804783 11.70558132 5.62804783 -2.43441868 5.12304783 C-2.76441868 3.80304783 -3.09441868 2.48304783 -3.43441868 1.12304783 C-2.43441868 0.12304783 -2.43441868 0.12304783 0 0 Z " fill="#FFD3E8" transform="translate(409.4344186782837,189.87695217132568)"/>
<path d="M0 0 C0.70125 0.4125 1.4025 0.825 2.125 1.25 C2.74375 1.4975 3.3625 1.745 4 2 C4.78375 1.525625 5.5675 1.05125 6.375 0.5625 C9 -1 9 -1 12 -0.9375 C15.42502608 0.13282065 17.40122555 1.54972695 20 4 C21.5547669 7.10953379 21.28644437 9.56266761 21 13 C18.29646057 17.69595829 14.99594752 21.2888714 11.0625 24.9375 C10.55009766 25.44345703 10.03769531 25.94941406 9.50976562 26.47070312 C7.23726941 28.58727203 5.69439183 29.94929837 2.5390625 30.1796875 C-1.1458679 28.46761215 -3.77348449 25.9827108 -6.6875 23.1875 C-7.26822266 22.65318359 -7.84894531 22.11886719 -8.44726562 21.56835938 C-12.4384371 17.8171196 -14.71480503 15.2000755 -15.4375 9.625 C-14.85406422 4.79081782 -13.44960332 3.36937999 -10 0 C-6.24226324 -1.25257892 -3.86382292 -0.74565004 0 0 Z " fill="#FF6BB5" transform="translate(154,542)"/>
<path d="M0 0 C0.9075 0.33 1.815 0.66 2.75 1 C2.75 0.34 2.75 -0.32 2.75 -1 C3.41 -1 4.07 -1 4.75 -1 C4.75 3.62 4.75 8.24 4.75 13 C3.76 12.67 2.77 12.34 1.75 12 C1.46125 10.906875 1.1725 9.81375 0.875 8.6875 C-0.41642757 4.45448742 -1.46648373 3.19971876 -5.25 1 C-7.87778044 0.49864801 -7.87778044 0.49864801 -10.25 1 C-12.43973497 2.81417709 -12.43973497 2.81417709 -12.6875 5.3125 C-11.67730566 11.51797954 -4.23608058 15.44229378 0.4453125 19.03515625 C3.43701586 21.58571013 5.45190582 23.47226732 6.21875 27.40234375 C6.27445705 31.92157832 6.29420285 34.25366466 3.5625 38 C-2.17097388 42.07713698 -7.29125956 42.76942171 -14.25 42 C-15.59452883 41.35621087 -16.92953405 40.69180337 -18.25 40 C-19.24 40 -20.23 40 -21.25 40 C-21.58 40.66 -21.91 41.32 -22.25 42 C-22.91 42 -23.57 42 -24.25 42 C-24.25 36.39 -24.25 30.78 -24.25 25 C-23.26 25.33 -22.27 25.66 -21.25 26 C-20.40625 28.1796875 -20.40625 28.1796875 -19.75 30.875 C-18.88111221 34.42295847 -18.26889016 36.78999907 -15.25 39 C-11.66624258 39.33354403 -11.66624258 39.33354403 -8.25 39 C-6.87506928 37.81092134 -6.87506928 37.81092134 -6.5625 34.5 C-6.57428581 31.21765227 -7.11054466 30.1598699 -9.3046875 27.64453125 C-11.89584474 25.34939642 -14.54896554 23.16413159 -17.25 21 C-21.11560179 17.42908534 -23.38867807 15.09563652 -23.625 9.6875 C-23.60031361 5.85493835 -23.38918768 5.17581602 -20.875 2 C-14.99705355 -2.47843539 -6.96866329 -2.0176212 0 0 Z " fill="#FF6CB5" transform="translate(657.25,395)"/>
<path d="M0 0 C2.625 0.375 2.625 0.375 5 1 C5.3403125 2.6396875 5.3403125 2.6396875 5.6875 4.3125 C6.57350497 8.17604719 6.57350497 8.17604719 9.625 9.25 C10.40875 9.8275 11.1925 10.405 12 11 C12.45724709 14.6965397 12.28319991 18.2932279 12 22 C10.9275 21.835 9.855 21.67 8.75 21.5 C4.96971248 20.91189085 4.96971248 20.91189085 1 21 C0.505 21.495 0.505 21.495 0 22 C-3.24313307 22.12238238 -6.16517042 22.22562961 -9.3125 21.375 C-9.869375 21.25125 -10.42625 21.1275 -11 21 C-11.66 21.66 -12.32 22.32 -13 23 C-16.375 23.125 -16.375 23.125 -20 23 C-23.7763932 22.7018576 -23.7763932 22.7018576 -26 24 C-27.99960012 24.039992 -30.00047242 24.04346799 -32 24 C-32.62674095 14.87743733 -32.62674095 14.87743733 -30.125 11.375 C-28 10 -28 10 -26 10 C-26 7.69 -26 5.38 -26 3 C-24.34385343 2.61781233 -22.67542976 2.28604898 -21 2 C-20 3 -20 3 -19.9375 6.5625 C-19.958125 7.696875 -19.97875 8.83125 -20 10 C-18.02 10 -16.04 10 -14 10 C-14 7.36 -14 4.72 -14 2 C-9.25 0.875 -9.25 0.875 -7 2 C-7 3.98 -7 5.96 -7 8 C-5.35 8 -3.7 8 -2 8 C-2.04125 7.05125 -2.0825 6.1025 -2.125 5.125 C-2 2 -2 2 0 0 Z " fill="#FF70B7" transform="translate(717,391)"/>
<path d="M0 0 C0 -0.66 0 -1.32 0 -2 C0.66 -2 1.32 -2 2 -2 C2 2.62 2 7.24 2 12 C1.34 12 0.68 12 0 12 C-0.15855469 11.38511719 -0.31710937 10.77023437 -0.48046875 10.13671875 C-1.95182907 4.95717759 -1.95182907 4.95717759 -5.3125 0.875 C-8.58784614 -0.19139177 -10.69540498 0.15463848 -14 1 C-14.58661468 4.24606681 -14.58661468 4.24606681 -14 8 C-12.00434015 10.42896826 -9.51574514 12.13683537 -7 14 C-5.57128926 15.19406847 -4.15450929 16.40255673 -2.75 17.625 C-2.10546875 18.17414063 -1.4609375 18.72328125 -0.796875 19.2890625 C2.5302141 22.45702995 3.89974322 24.22300995 4.5 28.875 C4.31097313 33.6996859 2.48148172 35.75061706 -1 39 C-5.48022259 41.81613991 -10.87719974 41.53475525 -16 41 C-18.83021822 40.21154951 -21.30373012 39.19834217 -24 38 C-24.33 38.99 -24.66 39.98 -25 41 C-25.33 41 -25.66 41 -26 41 C-26 35.72 -26 30.44 -26 25 C-25.34 25 -24.68 25 -24 25 C-23.82984375 25.60328125 -23.6596875 26.2065625 -23.484375 26.828125 C-21.65273821 33.36804218 -21.65273821 33.36804218 -17 38 C-14.24287171 38.31222758 -11.79192024 38.18612802 -9 38 C-8.27489799 32.79140416 -8.27489799 32.79140416 -10.27734375 28.15625 C-12.11078253 26.32696868 -14.00631096 24.65330311 -16 23 C-17.44040233 21.77423572 -18.87795159 20.54511015 -20.3125 19.3125 C-20.96863281 18.77238281 -21.62476563 18.23226563 -22.30078125 17.67578125 C-25.31909209 14.69910228 -25.95422365 12.31534818 -26.5625 8.125 C-26.43563567 4.73772246 -25.65996771 2.95205785 -23.3125 0.5 C-16.61738935 -4.52816473 -7.32096617 -2.73022498 0 0 Z " fill="#FF6EB6" transform="translate(380,396)"/>
<path d="M0 0 C0.33 1.32 0.66 2.64 1 4 C1.639375 3.34 2.27875 2.68 2.9375 2 C6.99883556 -0.65230077 10.26601036 -0.88307114 15 0 C17.125 1.5625 17.125 1.5625 18 4 C17.93375803 7.77579201 17.78061285 10.07482922 15.3125 13 C12.19425702 14.3484294 10.23294473 13.86211859 7 13 C6 12 6 12 5.8125 8.5625 C6 5 6 5 8 3 C4.34683329 4.24976756 3.21934164 4.67098753 1 8 C0.72271471 11.20254015 0.72271471 11.20254015 0.8046875 14.85546875 C0.80893234 15.84792351 0.80893234 15.84792351 0.81326294 16.86042786 C0.82444082 18.96963737 0.84954019 21.07841925 0.875 23.1875 C0.88503293 24.61913448 0.89415824 26.05077564 0.90234375 27.48242188 C0.92437205 30.98841977 0.95888515 34.49416813 1 38 C2.98 38.66 4.96 39.32 7 40 C7 40.66 7 41.32 7 42 C-0.92 42 -8.84 42 -17 42 C-17 41.34 -17 40.68 -17 40 C-15.68 39.34 -14.36 38.68 -13 38 C-12.90098252 33.37359847 -12.82846351 28.74781613 -12.78027344 24.12060547 C-12.7601812 22.54725396 -12.73290201 20.97397692 -12.69824219 19.40087891 C-12.64961506 17.13685728 -12.62700865 14.87382427 -12.609375 12.609375 C-12.57840729 11.55759064 -12.57840729 11.55759064 -12.54681396 10.48455811 C-12.54519574 6.94743419 -12.75036729 5.3052672 -15.02441406 2.52441406 C-15.67635742 2.02135742 -16.32830078 1.51830078 -17 1 C-15.10440036 0.83069605 -13.20850769 0.66467136 -11.3125 0.5 C-10.25675781 0.4071875 -9.20101562 0.314375 -8.11328125 0.21875 C-5.39363975 0.0276585 -2.72460144 -0.04043935 0 0 Z " fill="#FF6EB6" transform="translate(611,394)"/>
<path d="M0 0 C3.69230769 0.69230769 3.69230769 0.69230769 5 2 C5.04080783 3.99958364 5.04254356 6.00045254 5 8 C5.969375 8.309375 6.93875 8.61875 7.9375 8.9375 C11 10 11 10 12 11 C12.07205511 12.68608966 12.08386068 14.37500659 12.0625 16.0625 C12.05347656 16.98160156 12.04445313 17.90070313 12.03515625 18.84765625 C12.02355469 19.55792969 12.01195312 20.26820313 12 21 C8.33333333 21 4.66666667 21 1 21 C0.67 21.33 0.34 21.66 0 22 C-4.23314767 22.23961213 -7.36736489 22.32488647 -11 20 C-11 20.66 -11 21.32 -11 22 C-13.96674571 23.48337286 -16.71752666 23.05659437 -20 23 C-21.32 23 -22.64 23 -24 23 C-24.33 23.33 -24.66 23.66 -25 24 C-26.99958364 24.04080783 -29.00045254 24.04254356 -31 24 C-31.08114106 22.22992286 -31.13925505 20.45877902 -31.1875 18.6875 C-31.22230469 17.70136719 -31.25710937 16.71523438 -31.29296875 15.69921875 C-31 13 -31 13 -29.61328125 11.14453125 C-28 10 -28 10 -26 10 C-26 7.69 -26 5.38 -26 3 C-24.68 2.67 -23.36 2.34 -22 2 C-20.74335022 4.90600261 -20 6.79604584 -20 10 C-18.02 10 -16.04 10 -14 10 C-14 7.36 -14 4.72 -14 2 C-12.34385343 1.61781233 -10.67542976 1.28604898 -9 1 C-8 2 -8 2 -7.9375 5.5625 C-7.958125 6.696875 -7.97875 7.83125 -8 9 C-5.69 9 -3.38 9 -1 9 C-1.020625 7.700625 -1.04125 6.40125 -1.0625 5.0625 C-1.08399454 3.70834367 -1.07148199 2.35243917 -1 1 C-0.67 0.67 -0.34 0.34 0 0 Z " fill="#FF6DB6" transform="translate(266,391)"/>
<path d="M0 0 C1.95766281 -0.08082094 3.91626728 -0.13910778 5.875 -0.1875 C7.51082031 -0.23970703 7.51082031 -0.23970703 9.1796875 -0.29296875 C10.11039062 -0.19628906 11.04109375 -0.09960938 12 0 C12.66 0.99 13.32 1.98 14 3 C16.47266765 2.65555119 16.47266765 2.65555119 19 2 C19.33 1.34 19.66 0.68 20 0 C58.61 0 97.22 0 137 0 C136.67 1.65 136.34 3.3 136 5 C130.11011053 5.02475223 124.22025146 5.04288482 118.33032227 5.05493164 C116.32738721 5.05995478 114.32445581 5.06677445 112.3215332 5.07543945 C109.43960669 5.08759345 106.55772875 5.09324857 103.67578125 5.09765625 C102.78288895 5.10281754 101.88999664 5.10797882 100.970047 5.11329651 C96.8124476 5.11367013 93.07699726 4.89837313 89 4 C88.67 4.33 88.34 4.66 88 5 C85.2611158 5.09516211 82.54752059 5.12554594 79.80834961 5.11352539 C78.94988937 5.11367142 78.09142914 5.11381744 77.20695496 5.1139679 C74.35539262 5.11326847 71.50389475 5.1054747 68.65234375 5.09765625 C66.68079158 5.09579218 64.70923895 5.09436822 62.73768616 5.09336853 C57.53773733 5.08954251 52.33781625 5.07971152 47.13787842 5.06866455 C41.83606339 5.05845222 36.5342439 5.05387129 31.23242188 5.04882812 C20.82160237 5.03808933 10.41080349 5.02101191 0 5 C0 3.35 0 1.7 0 0 Z " fill="#F1E4FA" transform="translate(413,138)"/>
<path d="M0 0 C1.66611905 -0.042721 3.33382885 -0.04063832 5 0 C6 1 6 1 6.0625 4.0625 C6.041875 5.031875 6.02125 6.00125 6 7 C7.98 7 9.96 7 12 7 C12 5.02 12 3.04 12 1 C13.65614657 0.61781233 15.32457024 0.28604898 17 0 C18 1 18 1 18.0625 4.5625 C18.041875 5.696875 18.02125 6.83125 18 8 C19.98 7.67 21.96 7.34 24 7 C24.66 4.69 25.32 2.38 26 0 C27.32 0.33 28.64 0.66 30 1 C30 3.31 30 5.62 30 8 C30.804375 8.309375 31.60875 8.61875 32.4375 8.9375 C35 10 35 10 36 11 C36.07205511 12.68608966 36.08386068 14.37500659 36.0625 16.0625 C36.05347656 16.98160156 36.04445312 17.90070312 36.03515625 18.84765625 C36.02355469 19.55792969 36.01195312 20.26820312 36 21 C34.1875 21.625 34.1875 21.625 32 22 C31.01 21.34 30.02 20.68 29 20 C26.64168623 20.05136128 26.64168623 20.05136128 24.125 20.5 C20.03127812 21.0303366 17.79078179 20.72308263 14 19 C13.01 19.66 12.02 20.32 11 21 C8.4375 21.25 8.4375 21.25 6 21 C5.34 20.34 4.68 19.68 4 19 C2.14733927 19.29485154 2.14733927 19.29485154 0 20 C-1.9896995 20.39013716 -3.99019869 20.73202649 -6 21 C-7 20 -7 20 -7.3125 16.25 C-7.27676019 12.93811075 -6.98538794 11.97581452 -5.1875 9 C-3 7 -3 7 0 7 C0 4.69 0 2.38 0 0 Z " fill="#F9D9E9" transform="translate(157,10)"/>
<path d="M0 0 C0.9061225 0.00092179 1.81224501 0.00184359 2.74582577 0.00279331 C3.78214138 0.00141865 4.81845699 0.00004398 5.88617611 -0.00137234 C7.60599445 0.00402058 7.60599445 0.00402058 9.3605566 0.00952244 C10.56039181 0.00937641 11.76022701 0.00923038 12.99642086 0.00907993 C16.29586749 0.00965889 19.59525222 0.01468805 22.89468789 0.02165389 C26.33935856 0.0278881 29.78402997 0.02849128 33.22870541 0.0296793 C39.75584288 0.03279242 46.28296369 0.04100554 52.81009382 0.05102879 C60.23923575 0.06219053 67.66837845 0.06770053 75.09752667 0.07272422 C90.38369931 0.08318817 105.6698553 0.10078723 120.95601559 0.12304783 C121.51851559 2.06054783 121.51851559 2.06054783 121.95601559 4.12304783 C120.95601559 5.12304783 120.95601559 5.12304783 118.91203117 5.24609566 C118.00590867 5.24517386 117.09978617 5.24425207 116.16620541 5.24330235 C115.12988979 5.24467701 114.09357418 5.24605167 113.02585506 5.24746799 C111.8793095 5.24387272 110.73276394 5.24027744 109.55147457 5.23657322 C108.35163937 5.23671925 107.15180416 5.23686527 105.91561031 5.23701572 C102.61616368 5.23643677 99.31677895 5.23140761 96.01734328 5.22444177 C92.57267262 5.21820756 89.1280012 5.21760438 85.68332577 5.21641636 C79.15618829 5.21330324 72.62906748 5.20509012 66.10193735 5.19506687 C58.67279543 5.18390512 51.24365272 5.17839513 43.8145045 5.17337143 C28.52833186 5.16290749 13.24217587 5.14530843 -2.04398441 5.12304783 C-2.60648441 3.18554783 -2.60648441 3.18554783 -3.04398441 1.12304783 C-2.04398441 0.12304783 -2.04398441 0.12304783 0 0 Z " fill="#FFC7E2" transform="translate(422.043984413147,91.87695217132568)"/>
<path d="M0 0 C0.33 12.87 0.66 25.74 1 39 C2.32 39.33 3.64 39.66 5 40 C5 40.66 5 41.32 5 42 C-2.26 42 -9.52 42 -17 42 C-17 41.34 -17 40.68 -17 40 C-15.68 39.34 -14.36 38.68 -13 38 C-13 26.45 -13 14.9 -13 3 C-14.32 2.34 -15.64 1.68 -17 1 C-15.10440036 0.83069605 -13.20850769 0.66467136 -11.3125 0.5 C-10.25675781 0.4071875 -9.20101563 0.314375 -8.11328125 0.21875 C-5.41452498 0.02912597 -2.70540989 0 0 0 Z " fill="#FF6FB7" transform="translate(406,394)"/>
<path d="M0 0 C4.12236636 0.58698179 7.55943731 0.17406484 11.6875 -0.4375 C14.03010643 -0.1772104 16.3692571 0.13670028 18.6875 0.5625 C18.71438151 2.20824566 18.73384123 3.85411413 18.75 5.5 C18.76160156 6.41652344 18.77320313 7.33304687 18.78515625 8.27734375 C18.6875 10.5625 18.6875 10.5625 17.6875 11.5625 C15.44354651 11.79301333 13.19287773 11.95858848 10.94140625 12.09765625 C10.2562645 12.14063339 9.57112274 12.18361053 8.86521912 12.22789001 C7.40678377 12.31830877 5.94820375 12.40641837 4.48950195 12.49243164 C2.29012791 12.62262461 0.09137813 12.76087474 -2.10742188 12.90039062 C-19.16770091 13.957119 -19.16770091 13.957119 -24.3125 13.5625 C-25.3125 12.5625 -25.3125 12.5625 -25.41015625 10.27734375 C-25.39855469 9.36082031 -25.38695312 8.44429688 -25.375 7.5 C-25.36597656 6.58089844 -25.35695313 5.66179687 -25.34765625 4.71484375 C-25.33605469 4.00457031 -25.32445312 3.29429687 -25.3125 2.5625 C-19.21026182 1.07684443 -14.57539473 0.56043684 -8.3125 1.5625 C-7.67699219 1.23378906 -7.04148437 0.90507812 -6.38671875 0.56640625 C-3.8892788 -0.64233587 -2.70129738 -0.46541003 0 0 Z " fill="#FF6CB5" transform="translate(711.3125,415.4375)"/>
<path d="M0 0 C2.6015625 0.0234375 2.6015625 0.0234375 5.625 0.375 C6.62789063 0.48585938 7.63078125 0.59671875 8.6640625 0.7109375 C9.82035156 0.85402344 9.82035156 0.85402344 11 1 C11.22162329 2.62324086 11.42689803 4.248721 11.625 5.875 C11.74101562 6.77992188 11.85703125 7.68484375 11.9765625 8.6171875 C11.98816406 9.79667969 11.98816406 9.79667969 12 11 C9.21988636 13.78011364 7.30451478 13.39844531 3.41015625 13.6328125 C2.75099716 13.67437469 2.09183807 13.71593689 1.41270447 13.75875854 C0.01164603 13.84532915 -1.38969598 13.92740841 -2.79125977 14.00537109 C-4.8986537 14.12283475 -7.00488167 14.25344012 -9.11132812 14.38671875 C-16.74813368 14.85387008 -24.34644706 15.09309274 -32 15 C-32 11.7 -32 8.4 -32 5 C-31.030625 4.87625 -30.06125 4.7525 -29.0625 4.625 C-28.051875 4.41875 -27.04125 4.2125 -26 4 C-25.67 3.34 -25.34 2.68 -25 2 C-24.41992188 2.09539062 -23.83984375 2.19078125 -23.2421875 2.2890625 C-18.23911581 2.99906937 -14.75977038 3.07477171 -10 1 C-9.67 1.33 -9.34 1.66 -9 2 C-5.54178598 2.25003964 -5.54178598 2.25003964 -2 2 C-1.34 1.34 -0.68 0.68 0 0 Z " fill="#FF6DB5" transform="translate(268,414)"/>
<path d="M0 0 C0.66 0.33 1.32 0.66 2 1 C1.98839844 2.18078125 1.97679687 3.3615625 1.96484375 4.578125 C1.95546248 6.13541508 1.94636264 7.69270688 1.9375 9.25 C1.92912109 10.02730469 1.92074219 10.80460937 1.91210938 11.60546875 C1.90888672 12.35957031 1.90566406 13.11367188 1.90234375 13.890625 C1.89710693 14.58188477 1.89187012 15.27314453 1.88647461 15.98535156 C2.00562029 18.09973898 2.42381763 19.96641515 3 22 C2.01 22 1.02 22 0 22 C-1.299375 23.0209375 -1.299375 23.0209375 -2.625 24.0625 C-6.5450309 26.31288811 -8.5160955 26.47067644 -12.875 25.734375 C-16.76503266 24.39002548 -17.94973004 22.57143799 -20 19 C-20.63496223 14.97857252 -20.48253047 12.90212218 -18.5625 9.3125 C-15.06788831 6.15882604 -11.33742338 4.715984 -7 3 C-5.6865901 2.39781395 -4.3739891 1.79385793 -3.0625 1.1875 C-1.5465625 0.5996875 -1.5465625 0.5996875 0 0 Z " fill="#FF6FB7" transform="translate(488,411)"/>
<path d="M0 0 C5.50517208 -0.12511755 9.11941322 0.27813429 14 3 C17.06666787 6.16559264 17.25307946 9.19006444 17.4375 13.4375 C17.30458512 18.36864213 16.37143634 21.24325665 13 25 C8.93150591 27.71232939 6.83523216 27.30699887 2 27 C0 25 0 25 -0.22705078 22.47802734 C-0.21657715 21.4411377 -0.20610352 20.40424805 -0.1953125 19.3359375 C-0.18886719 18.21445312 -0.18242187 17.09296875 -0.17578125 15.9375 C-0.15902344 14.761875 -0.14226562 13.58625 -0.125 12.375 C-0.11597656 11.19164062 -0.10695313 10.00828125 -0.09765625 8.7890625 C-0.07402812 5.85917477 -0.04108514 2.9296866 0 0 Z " fill="#FFDFEC" transform="translate(433,407)"/>
<path d="M0 0 C1.32 0 2.64 0 4 0 C4.27714844 1.05960937 4.55429688 2.11921875 4.83984375 3.2109375 C5.205614 4.59898869 5.57150572 5.98700787 5.9375 7.375 C6.11990234 8.07367188 6.30230469 8.77234375 6.49023438 9.4921875 C7.48512509 13.33955098 7.48512509 13.33955098 9 17 C10.65 11.39 12.3 5.78 14 0 C15.65 0 17.3 0 19 0 C19.67548578 2.05962852 20.34004312 4.12284322 21 6.1875 C21.37125 7.33605469 21.7425 8.48460937 22.125 9.66796875 C22.90630553 12.64320812 23.18363306 14.95283896 23 18 C23.66 18 24.32 18 25 18 C25.12117188 17.3709375 25.24234375 16.741875 25.3671875 16.09375 C26.42678016 10.68167674 27.61599898 5.33828966 29 0 C30.32 0 31.64 0 33 0 C32.43189471 5.79859195 31.26320265 10.97686594 29.4375 16.5 C29.20353516 17.22703125 28.96957031 17.9540625 28.72851562 18.703125 C28.15867219 20.47080261 27.58024596 22.23570969 27 24 C25.35 24.33 23.7 24.66 22 25 C21.65066406 23.92878906 21.30132812 22.85757812 20.94140625 21.75390625 C20.48192855 20.35671896 20.02228454 18.95958635 19.5625 17.5625 C19.33240234 16.85544922 19.10230469 16.14839844 18.86523438 15.41992188 C17.92578853 11.93693205 17.92578853 11.93693205 16 9 C14.35 14.28 12.7 19.56 11 25 C9.35 25 7.7 25 6 25 C5.00296241 21.78140779 4.0099301 18.56168659 3.0234375 15.33984375 C2.45221378 13.47573581 1.87740545 11.61268206 1.2890625 9.75390625 C0.26117241 6.40953921 -0.21214029 3.50031484 0 0 Z " fill="#585557" transform="translate(128,487)"/>
<path d="M0 0 C2.4375 1 2.4375 1 4 2 C4 1.34 4 0.68 4 0 C5.32 0 6.64 0 8 0 C8 6.6 8 13.2 8 20 C6.68 20 5.36 20 4 20 C4 19.34 4 18.68 4 18 C3.01 18.66 2.02 19.32 1 20 C-6.11864407 20.6779661 -6.11864407 20.6779661 -9.4375 18.125 C-12.52683696 13.92350174 -12.76600718 10.10671454 -12 5 C-8.63370217 0.00155776 -5.87658222 -0.74792865 0 0 Z " fill="#545253" transform="translate(737,492)"/>
<path d="M0 0 C0.99 0.66 1.98 1.32 3 2 C3 1.34 3 0.68 3 0 C4.32 0 5.64 0 7 0 C7 6.6 7 13.2 7 20 C5.35 19.67 3.7 19.34 2 19 C1.34 19.33 0.68 19.66 0 20 C-3.01107177 20.34553283 -5.09312777 20.57248153 -8 20 C-11.0874681 17.42710991 -12.58386894 15.88916134 -13.44140625 11.99609375 C-13.65854308 8.30476763 -13.10708037 6.16775924 -11.125 3.0625 C-7.50860284 -0.44753254 -4.96482287 -0.26130647 0 0 Z " fill="#525151" transform="translate(506,492)"/>
<path d="M0 0 C2.8100346 1.79363911 4.50940468 3.01880935 6 6 C6.5811138 13.08958838 6.5811138 13.08958838 4.125 16.9375 C0.8698054 20.09695358 -1.42413238 20.33421243 -5.9609375 20.29296875 C-9.13134567 19.83745033 -10.8192402 18.24684343 -13 16 C-14.60086627 12.79826746 -14.49917089 9.47422941 -14 6 C-10.32759145 0.24655994 -6.71744997 -0.96515086 0 0 Z " fill="#545253" transform="translate(647,492)"/>
<path d="M0 0 C4.67879749 -0.3743038 8.07780011 -0.44402217 12.375 1.625 C15.34343061 4.31072294 16.6688136 6.2283052 18 10 C18.1875 13.875 18.1875 13.875 18 17 C10.59760355 17.12886183 3.36040917 16.79725902 -4 16 C-4.54330269 9.34454208 -3.77304004 5.54165256 0 0 Z " fill="#FF6DB6" transform="translate(572,394)"/>
<path d="M0 0 C3.1875 0.4375 3.1875 0.4375 6.0625 2.125 C9.38765007 7.30832216 9.02124939 12.45102918 8.1875 18.4375 C6.91895739 21.6767088 5.37641296 23.84304352 2.1875 25.4375 C-0.1454866 25.47772391 -2.47956666 25.48070247 -4.8125 25.4375 C-4.87036668 21.64589703 -4.90605054 17.85440689 -4.9375 14.0625 C-4.95425781 12.98226563 -4.97101563 11.90203125 -4.98828125 10.7890625 C-4.99472656 9.7578125 -5.00117188 8.7265625 -5.0078125 7.6640625 C-5.01828613 6.71096191 -5.02875977 5.75786133 -5.03955078 4.77587891 C-4.68872169 1.16271655 -3.48812729 0.54259758 0 0 Z " fill="#FFDEEB" transform="translate(437.8125,380.5625)"/>
<path d="M0 0 C1.65 0 3.3 0 5 0 C5 3.63 5 7.26 5 11 C8.63 11 12.26 11 16 11 C16 7.37 16 3.74 16 0 C17.65 0 19.3 0 21 0 C21 8.25 21 16.5 21 25 C19.35 25 17.7 25 16 25 C16 21.37 16 17.74 16 14 C12.37 14 8.74 14 5 14 C5 17.63 5 21.26 5 25 C3.35 25 1.7 25 0 25 C0 16.75 0 8.5 0 0 Z " fill="#645F61" transform="translate(678,487)"/>
<path d="M0 0 C2.8100346 1.79363911 4.50940468 3.01880935 6 6 C6 7.98 6 9.96 6 12 C1.05 12 -3.9 12 -9 12 C-8.01 13.32 -7.02 14.64 -6 16 C-2.31733897 15.40049704 1.34543185 14.75241109 5 14 C3.63016497 17.16115776 3.0109362 17.9927092 0 20 C-3.0169088 20.34061873 -5.09407815 20.57212107 -8 20 C-10.69105198 17.82425584 -12.45532928 16.08934144 -14 13 C-14.39447548 8.81855989 -14.45035186 6.69053952 -12.125 3.125 C-8.51880254 -0.48119746 -4.93573703 -0.70915762 0 0 Z " fill="#5B5859" transform="translate(308,492)"/>
<path d="M0 0 C2.8100346 1.79363911 4.50940468 3.01880935 6 6 C6 7.98 6 9.96 6 12 C1.05 12 -3.9 12 -9 12 C-8.67 12.99 -8.34 13.98 -8 15 C-4.02245872 15.73334429 -4.02245872 15.73334429 0 16 C0 15.34 0 14.68 0 14 C1.65 14 3.3 14 5 14 C2.25 18.875 2.25 18.875 0 20 C-7.13230769 20.70153846 -7.13230769 20.70153846 -10.9375 17.625 C-14.14138495 13.54732825 -14.4417127 11.21220986 -14 6 C-10.26747896 0.27680107 -6.74763808 -0.96948823 0 0 Z " fill="#5A5758" transform="translate(437,492)"/>
<path d="M0 0 C2.8100346 1.79363911 4.50940468 3.01880935 6 6 C6 7.98 6 9.96 6 12 C1.05 12 -3.9 12 -9 12 C-8.67 12.99 -8.34 13.98 -8 15 C-4.02245872 15.73334429 -4.02245872 15.73334429 0 16 C0 15.34 0 14.68 0 14 C1.65 14 3.3 14 5 14 C2.25 18.875 2.25 18.875 0 20 C-7.13230769 20.70153846 -7.13230769 20.70153846 -10.9375 17.625 C-14.14138495 13.54732825 -14.4417127 11.21220986 -14 6 C-10.26747896 0.27680107 -6.74763808 -0.96948823 0 0 Z " fill="#5A5858" transform="translate(237,492)"/>
<path d="M0 0 C2.8100346 1.79363911 4.50940468 3.01880935 6 6 C6 7.98 6 9.96 6 12 C1.05 12 -3.9 12 -9 12 C-8.67 12.99 -8.34 13.98 -8 15 C-4.02245872 15.73334429 -4.02245872 15.73334429 0 16 C0 15.34 0 14.68 0 14 C1.65 14 3.3 14 5 14 C2.25 18.875 2.25 18.875 0 20 C-7.13230769 20.70153846 -7.13230769 20.70153846 -10.9375 17.625 C-14.14138495 13.54732825 -14.4417127 11.21220986 -14 6 C-10.26747896 0.27680107 -6.74763808 -0.96948823 0 0 Z " fill="#5A5858" transform="translate(201,492)"/>
<path d="M0 0 C12 0 12 0 17 3 C17.51656621 6.25436715 17.75260304 7.93406793 17 11 C15 13.5 15 13.5 12 15 C9.23847356 15.30626911 6.79465924 15.18946842 4 15 C4 18.3 4 21.6 4 25 C2.68 25 1.36 25 0 25 C0 16.75 0 8.5 0 0 Z " fill="#545253" transform="translate(528,487)"/>
<path d="M0 0 C2.8100346 1.79363911 4.50940468 3.01880935 6 6 C6 7.98 6 9.96 6 12 C1.05 12 -3.9 12 -9 12 C-8.01 13.32 -7.02 14.64 -6 16 C-2.31733897 15.40049704 1.34543185 14.75241109 5 14 C3.63016497 17.16115776 3.0109362 17.9927092 0 20 C-4.78837042 20.54062247 -6.89466366 20.69083521 -11 18.125 C-13.80989899 13.73453283 -14.0151866 10.07593299 -13 5 C-9.68365168 -0.18179424 -5.81750054 -1.30453042 0 0 Z " fill="#595657" transform="translate(615,492)"/>
<path d="M0 0 C2.8100346 1.79363911 4.50940468 3.01880935 6 6 C6 7.98 6 9.96 6 12 C1.05 12 -3.9 12 -9 12 C-8.01 13.32 -7.02 14.64 -6 16 C-2.31733897 15.40049704 1.34543185 14.75241109 5 14 C3.63016497 17.16115776 3.0109362 17.9927092 0 20 C-4.78837042 20.54062247 -6.89466366 20.69083521 -11 18.125 C-13.80989899 13.73453283 -14.0151866 10.07593299 -13 5 C-9.68365168 -0.18179424 -5.81750054 -1.30453042 0 0 Z " fill="#595657" transform="translate(571,492)"/>
<path d="M0 0 C4.6 2.2 4.6 2.2 6 5 C6 7.31 6 9.62 6 12 C1.38 12.33 -3.24 12.66 -8 13 C-7.01 14.485 -7.01 14.485 -6 16 C-3.5 16.41666667 -3.5 16.41666667 -1 16 C-0.34 15.34 0.32 14.68 1 14 C3.625 13.875 3.625 13.875 6 14 C3.25 18.875 3.25 18.875 1 20 C-2.0828553 20.47847852 -4.92347221 20.5463489 -8 20 C-11.16664776 17.41498142 -12.5764456 15.94003044 -13.4375 11.99609375 C-13.66167019 8.30429097 -13.10710782 6.16780225 -11.125 3.0625 C-7.50882222 -0.44731961 -4.97588405 -0.33734807 0 0 Z " fill="#575456" transform="translate(783,492)"/>
<path d="M0 0 C2.77637944 1.38513875 3.86259112 2.54979957 6 5 C6 7.31 6 9.62 6 12 C1.05 12 -3.9 12 -9 12 C-6.56557152 16.22463984 -6.56557152 16.22463984 -3.4375 16.375 C-0.82471891 16.21896136 -0.82471891 16.21896136 1 14 C2.32 14 3.64 14 5 14 C4.6875 15.875 4.6875 15.875 4 18 C-0.0198699 20.67991326 -3.27884595 20.9177725 -8 20 C-11.33475022 17.34581105 -12.5747067 15.86474757 -13.5078125 11.7734375 C-13.85622958 7.2440155 -13.42305939 5.50560757 -10.4375 1.9375 C-6.41915413 -0.32738586 -4.53425456 -0.80968831 0 0 Z " fill="#555354" transform="translate(716,492)"/>
<path d="M0 0 C0.99 0 1.98 0 3 0 C3 6.27 3 12.54 3 19 C3.99 18.67 4.98 18.34 6 18 C6.33 17.34 6.66 16.68 7 16 C7.66 16 8.32 16 9 16 C8.8453125 14.14375 8.8453125 14.14375 8.6875 12.25 C8.6875 8.79125407 8.78690951 8.24353199 11.1875 5.5 C14.23858583 3.87275422 15.62077589 3.30682582 19 4 C21.3125 5.5 21.3125 5.5 23 8 C23.71898986 13.032929 23.78643017 14.86661535 20.875 19.0625 C18 21 18 21 14.6875 20.8125 C13.800625 20.544375 12.91375 20.27625 12 20 C11.67 19.01 11.34 18.02 11 17 C10.01 17 9.02 17 8 17 C7.67 17.99 7.34 18.98 7 20 C4.625 20.125 4.625 20.125 2 20 C0 18 0 18 -0.22705078 16.12060547 C-0.21657715 15.37697754 -0.20610352 14.63334961 -0.1953125 13.8671875 C-0.18886719 13.06152344 -0.18242188 12.25585938 -0.17578125 11.42578125 C-0.15064453 10.16314453 -0.15064453 10.16314453 -0.125 8.875 C-0.11597656 8.02550781 -0.10695313 7.17601562 -0.09765625 6.30078125 C-0.07405647 4.20040116 -0.03818483 2.10016556 0 0 Z " fill="#F2D9E3" transform="translate(535,319)"/>
<path d="M0 0 C3.96 0 7.92 0 12 0 C13.90308108 4.75770271 14.44358026 7.03190114 14 12 C11.8 16.6 11.8 16.6 9 18 C3.63100635 18.45693563 3.63100635 18.45693563 1.1875 16.6875 C-1.0394471 13.52289096 -1.13602205 10.67948673 -1.125 6.9375 C-1.12757813 6.05964844 -1.13015625 5.18179688 -1.1328125 4.27734375 C-1 2 -1 2 0 0 Z " fill="#FE9410" transform="translate(475,30)"/>
<path d="M0 0 C3.63 0 7.26 0 11 0 C12.90308108 4.75770271 13.44358026 7.03190114 13 12 C10.8 16.6 10.8 16.6 8 18 C2.63100635 18.45693563 2.63100635 18.45693563 0.1875 16.6875 C-2.48685108 12.88710636 -2.50733719 8.48004531 -2 4 C-1.34 2.68 -0.68 1.36 0 0 Z " fill="#FEC213" transform="translate(448,30)"/>
<path d="M0 0 C1.32 0 2.64 0 4 0 C4 2.97 4 5.94 4 9 C4.99 8.34 5.98 7.68 7 7 C10.74386392 6.59157848 13.04224073 6.34567243 16.20703125 8.5078125 C18.71091099 11.98815078 18.43879144 15.1401556 18.25 19.25 C18.23195312 19.99507813 18.21390625 20.74015625 18.1953125 21.5078125 C18.14835649 23.33909701 18.07661652 25.16971649 18 27 C16.68 27 15.36 27 14 27 C13.67 22.05 13.34 17.1 13 12 C8.11785113 10.41074435 8.11785113 10.41074435 5 13 C4.41312216 16.34613512 4.41312216 16.34613512 4.3125 20.125 C4.24675781 21.40632813 4.18101562 22.68765625 4.11328125 24.0078125 C4.07589844 24.99523437 4.03851563 25.98265625 4 27 C2.68 27 1.36 27 0 27 C0 18.09 0 9.18 0 0 Z " fill="#575555" transform="translate(165,485)"/>
<path d="M0 0 C1.77734375 1.3359375 1.77734375 1.3359375 3 3 C3 3.99 3 4.98 3 6 C0.43565836 5.48713167 -2.12781543 4.97324793 -4.6875 4.4375 C-6.93526987 3.93803611 -6.93526987 3.93803611 -9 4 C-9 5.65 -9 7.3 -9 9 C-8.31292969 9.18175781 -7.62585938 9.36351562 -6.91796875 9.55078125 C-6.01691406 9.80214844 -5.11585938 10.05351562 -4.1875 10.3125 C-3.29417969 10.55613281 -2.40085937 10.79976563 -1.48046875 11.05078125 C1.09671714 12.03701144 2.3352904 12.82348647 4 15 C4.5 17.9375 4.5 17.9375 4 21 C1.88794394 23.50806657 0.28235407 24.75114713 -2.97265625 25.3828125 C-6.52428511 25.58196926 -8.60917296 25.2833496 -11.5 23.1875 C-13 21 -13 21 -13 18 C-11.68 18 -10.36 18 -9 18 C-8.34 18.99 -7.68 19.98 -7 21 C-4.41619823 21.25030977 -4.41619823 21.25030977 -2 21 C-1.67 19.35 -1.34 17.7 -1 16 C-1.69867188 15.73445313 -2.39734375 15.46890625 -3.1171875 15.1953125 C-4.02726562 14.84210938 -4.93734375 14.48890625 -5.875 14.125 C-6.77992188 13.77695312 -7.68484375 13.42890625 -8.6171875 13.0703125 C-11 12 -11 12 -13 10 C-13.66574776 3.8973122 -13.66574776 3.8973122 -11.5625 1.0625 C-7.80474409 -0.49559391 -4.00525391 -0.75236814 0 0 Z " fill="#525152" transform="translate(375,487)"/>
<path d="M0 0 C13.11380471 -0.61279461 13.11380471 -0.61279461 16.9375 2.03125 C19.49232525 5.70864998 19.58026022 8.50773954 19.3125 12.8125 C19.28994141 13.50537109 19.26738281 14.19824219 19.24414062 14.91210938 C19.18562661 16.60901573 19.0959548 18.30479861 19 20 C17.68 20 16.36 20 15 20 C14.96261719 19.01257813 14.92523437 18.02515625 14.88671875 17.0078125 C14.82097656 15.72648437 14.75523437 14.44515625 14.6875 13.125 C14.62949219 11.84882813 14.57148437 10.57265625 14.51171875 9.2578125 C14.34285156 8.18273437 14.17398438 7.10765625 14 6 C10.88214887 3.41074435 10.88214887 3.41074435 6 5 C5.67 9.95 5.34 14.9 5 20 C3.35 20 1.7 20 0 20 C0 13.4 0 6.8 0 0 Z " fill="#666163" transform="translate(793,492)"/>
<path d="M0 0 C2.48386059 3.72579089 2.3804212 5.58711402 2 10 C-0.2 14.6 -0.2 14.6 -3 16 C-8.36899365 16.45693563 -8.36899365 16.45693563 -10.8125 14.6875 C-13.63631242 10.67471393 -13.07677192 6.68308735 -13 2 C-8.48894322 -0.25552839 -4.94884301 -0.40564287 0 0 Z " fill="#FEBC07" transform="translate(516,32)"/>
<path d="M0 0 C2.3125 1.5 2.3125 1.5 4 4 C4.71898986 9.032929 4.78643017 10.86661535 1.875 15.0625 C-1 17 -1 17 -4.125 17.125 C-7 16 -7 16 -8.875 13.875 C-10.29008966 10.25865976 -10.56009008 7.85061933 -10 4 C-6.98538624 0.64085896 -4.52721473 -0.92865943 0 0 Z " fill="#F2DAE2" transform="translate(478,323)"/>
<path d="M0 0 C2.475 0.495 2.475 0.495 5 1 C6.32 4.96 7.64 8.92 9 13 C11.40804568 10.59195432 12.00768759 8.57796225 13.125 5.375 C13.47820312 4.37210937 13.83140625 3.36921875 14.1953125 2.3359375 C14.46085937 1.56507813 14.72640625 0.79421875 15 0 C16.32 0 17.64 0 19 0 C18.35952645 3.83977684 17.22822779 7.15596714 15.71484375 10.73828125 C15.26689453 11.80498047 14.81894531 12.87167969 14.35742188 13.97070312 C13.88884766 15.07349609 13.42027344 16.17628906 12.9375 17.3125 C12.46505859 18.43462891 11.99261719 19.55675781 11.50585938 20.71289062 C10.34138677 23.47704277 9.17263728 26.239304 8 29 C6.68 29 5.36 29 4 29 C4.95300128 23.1458493 4.95300128 23.1458493 5.71875 20.76953125 C6.11731486 16.8447745 4.62754516 13.88179703 3.0625 10.375 C0 3.34007761 0 3.34007761 0 0 Z " fill="#585657" transform="translate(330,492)"/>
<path d="M0 0 C2.97 0 5.94 0 9 0 C9.08069658 2.95887459 9.14034665 5.9155659 9.1875 8.875 C9.22520508 10.13763672 9.22520508 10.13763672 9.26367188 11.42578125 C9.27817383 12.63427734 9.27817383 12.63427734 9.29296875 13.8671875 C9.31653442 14.98262939 9.31653442 14.98262939 9.34057617 16.12060547 C9.22818604 16.74080566 9.1157959 17.36100586 9 18 C6 20 6 20 3.4375 19.75 C1 19 1 19 -1 17 C-1.17201285 14.45770841 -1.23257617 12.03850004 -1.1875 9.5 C-1.18685547 8.81035156 -1.18621094 8.12070313 -1.18554688 7.41015625 C-1.14055525 2.28111049 -1.14055525 2.28111049 0 0 Z " fill="#FFDC27" transform="translate(449,62)"/>
<path d="M0 0 C4.62 0 9.24 0 14 0 C14 0.99 14 1.98 14 3 C10.7 3 7.4 3 4 3 C4 5.64 4 8.28 4 11 C6.97 11 9.94 11 13 11 C13 11.99 13 12.98 13 14 C10.03 14 7.06 14 4 14 C4 16.64 4 19.28 4 22 C7.3 22 10.6 22 14 22 C14 22.99 14 23.98 14 25 C9.38 25 4.76 25 0 25 C0 16.75 0 8.5 0 0 Z " fill="#504F50" transform="translate(256,487)"/>
<path d="M0 0 C2.97 0 5.94 0 9 0 C9.08089542 2.77141717 9.14044062 5.54047819 9.1875 8.3125 C9.22520508 9.49102539 9.22520508 9.49102539 9.26367188 10.69335938 C9.27817383 11.8293457 9.27817383 11.8293457 9.29296875 12.98828125 C9.31653442 14.03302612 9.31653442 14.03302612 9.34057617 15.09887695 C8.89324338 17.59592387 8.00372777 18.48968088 6 20 C2.65807308 19.75546876 1.39456443 19.39456443 -1 17 C-1.54558503 11.34071124 -1.20082474 5.5538144 0 0 Z " fill="#FFE259" transform="translate(506,62)"/>
<path d="M0 0 C2.97 0 5.94 0 9 0 C9.08089542 2.77141717 9.14044062 5.54047819 9.1875 8.3125 C9.22520508 9.49102539 9.22520508 9.49102539 9.26367188 10.69335938 C9.27817383 11.8293457 9.27817383 11.8293457 9.29296875 12.98828125 C9.31653442 14.03302612 9.31653442 14.03302612 9.34057617 15.09887695 C8.89324338 17.59592387 8.00372777 18.48968088 6 20 C2.65807308 19.75546876 1.39456443 19.39456443 -1 17 C-1.54558503 11.34071124 -1.20082474 5.5538144 0 0 Z " fill="#FFE259" transform="translate(477,62)"/>
<path d="M0 0 C0.99 0.495 0.99 0.495 2 1 C3.35344237 1.04428441 4.7089039 1.03930588 6.0625 1 C7.361875 1 8.66125 1 10 1 C11 2 11 2 11.11352539 4.95922852 C11.10828857 6.25272217 11.10305176 7.54621582 11.09765625 8.87890625 C11.0962413 9.5655687 11.09482635 10.25223114 11.09336853 10.95970154 C11.08775479 13.16067801 11.07520007 15.36155409 11.0625 17.5625 C11.05748676 19.05143083 11.05292355 20.54036324 11.04882812 22.02929688 C11.03778093 25.68623075 11.02050713 29.34310558 11 33 C10.67 33 10.34 33 10 33 C10 27.39 10 21.78 10 16 C7.03 16 4.06 16 1 16 C1 17.98 1 19.96 1 22 C0.67 22 0.34 22 0 22 C0 14.74 0 7.48 0 0 Z " fill="#FEEDC5" transform="translate(505,46)"/>
<path d="M0 0 C2.82321865 2.82321865 3.77294537 6.25978203 5.125 9.9375 C5.40214844 10.66646484 5.67929687 11.39542969 5.96484375 12.14648438 C7.10821193 15.21893433 8 17.69539373 8 21 C2.72 21 -2.56 21 -8 21 C-6.85556952 17.87447968 -5.70952213 14.74956909 -4.5625 11.625 C-4.23701172 10.73554688 -3.91152344 9.84609375 -3.57617188 8.9296875 C-3.26357422 8.07890625 -2.95097656 7.228125 -2.62890625 6.3515625 C-2.34088135 5.56604004 -2.05285645 4.78051758 -1.75610352 3.97119141 C-1 2 -1 2 0 0 Z " fill="#FFDFEB" transform="translate(317,392)"/>
<path d="M0 0 C2.4375 1.3125 2.4375 1.3125 4 3 C4 3.99 4 4.98 4 6 C0.66666667 5.33333333 -2.66666667 4.66666667 -6 4 C-6 4.99 -6 5.98 -6 7 C-5.36191406 7.27714844 -4.72382813 7.55429687 -4.06640625 7.83984375 C-3.24011719 8.20207031 -2.41382813 8.56429688 -1.5625 8.9375 C-0.73878906 9.29714844 0.08492188 9.65679687 0.93359375 10.02734375 C3 11 3 11 4 12 C4.28417861 14.69969684 4.32477191 16.41135091 3 18.8125 C-0.18336495 20.70262294 -3.44558146 20.53638107 -7 20 C-9.5 18.6875 -9.5 18.6875 -11 17 C-11 16.01 -11 15.02 -11 14 C-9.68 14 -8.36 14 -7 14 C-7 14.66 -7 15.32 -7 16 C-5.02 16 -3.04 16 -1 16 C-0.67 15.01 -0.34 14.02 0 13 C-0.62648438 12.80664062 -1.25296875 12.61328125 -1.8984375 12.4140625 C-2.71570313 12.15367187 -3.53296875 11.89328125 -4.375 11.625 C-5.59316406 11.24214844 -5.59316406 11.24214844 -6.8359375 10.8515625 C-9 10 -9 10 -11 8 C-11.375 5.5625 -11.375 5.5625 -11 3 C-7.86590419 -0.63555114 -4.56868727 -0.48950221 0 0 Z " fill="#535252" transform="translate(476,492)"/>
<path d="M0 0 C1.65 0 3.3 0 5 0 C6.65 4.62 8.3 9.24 10 14 C11.0828125 10.8134375 11.0828125 10.8134375 12.1875 7.5625 C13.41796875 3.94140625 13.41796875 3.94140625 15 1 C17.67578125 0.08984375 17.67578125 0.08984375 20 0 C17.80962826 6.72045875 15.44234339 13.36724003 13 20 C11.35 20 9.7 20 8 20 C7.67386719 19.20335937 7.34773437 18.40671875 7.01171875 17.5859375 C4.29348041 10.89236181 4.29348041 10.89236181 1.1875 4.375 C0 2 0 2 0 0 Z " fill="#5B5859" transform="translate(748,492)"/>
<path d="M0 0 C2.9375 1.875 2.9375 1.875 5 4 C5 4.66 5 5.32 5 6 C4.29875 5.855625 3.5975 5.71125 2.875 5.5625 C1.92625 5.376875 0.9775 5.19125 0 5 C-1.5778125 4.6596875 -1.5778125 4.6596875 -3.1875 4.3125 C-4.5796875 4.1578125 -4.5796875 4.1578125 -6 4 C-8.15705515 5.7564331 -8.15705515 5.7564331 -8.265625 7.875 C-8.26046875 8.57625 -8.2553125 9.2775 -8.25 10 C-8.25515625 10.70125 -8.2603125 11.4025 -8.265625 12.125 C-8.15705515 14.2435669 -8.15705515 14.2435669 -6 16 C-3.5 16.33333333 -3.5 16.33333333 -1 16 C-0.34 15.34 0.32 14.68 1 14 C2.32 14 3.64 14 5 14 C3.84826645 16.46800047 2.95216435 18.04783565 1 20 C-2.03704568 20.50421994 -4.95802594 20.45467228 -8 20 C-10.97251817 17.77061137 -12.73081251 15.73438522 -13.30859375 12.01171875 C-13.56505719 7.38760518 -13.51862003 5.61981418 -10.4375 1.9375 C-6.45664064 -0.30625709 -4.49411434 -0.73540053 0 0 Z " fill="#525051" transform="translate(593,492)"/>
<path d="M0 0 C2.9375 1.875 2.9375 1.875 5 4 C5 4.66 5 5.32 5 6 C4.29875 5.855625 3.5975 5.71125 2.875 5.5625 C1.92625 5.376875 0.9775 5.19125 0 5 C-1.5778125 4.6596875 -1.5778125 4.6596875 -3.1875 4.3125 C-4.5796875 4.1578125 -4.5796875 4.1578125 -6 4 C-8.15705515 5.7564331 -8.15705515 5.7564331 -8.265625 7.875 C-8.26046875 8.57625 -8.2553125 9.2775 -8.25 10 C-8.25515625 10.70125 -8.2603125 11.4025 -8.265625 12.125 C-8.15705515 14.2435669 -8.15705515 14.2435669 -6 16 C-3.5 16.33333333 -3.5 16.33333333 -1 16 C-0.34 15.34 0.32 14.68 1 14 C2.32 14 3.64 14 5 14 C3.84826645 16.46800047 2.95216435 18.04783565 1 20 C-2.03704568 20.50421994 -4.95802594 20.45467228 -8 20 C-10.97251817 17.77061137 -12.73081251 15.73438522 -13.30859375 12.01171875 C-13.56505719 7.38760518 -13.51862003 5.61981418 -10.4375 1.9375 C-6.45664064 -0.30625709 -4.49411434 -0.73540053 0 0 Z " fill="#525151" transform="translate(415,492)"/>
<path d="M0 0 C2.359375 0.16015625 2.359375 0.16015625 5 1 C6.328125 3.43359375 6.328125 3.43359375 7.25 6.4375 C7.56453125 7.42621094 7.8790625 8.41492188 8.203125 9.43359375 C8.46609375 10.28050781 8.7290625 11.12742187 9 12 C9.33 12.66 9.66 13.32 10 14 C11.65 9.38 13.3 4.76 15 0 C16.32 0 17.64 0 19 0 C18.28298649 4.26948952 16.96429029 8.18063511 15.5 12.25 C15.0565625 13.49265625 14.613125 14.7353125 14.15625 16.015625 C13 19 13 19 12 20 C10.33382885 20.04063832 8.66611905 20.042721 7 20 C4.2472483 13.43252132 1.92556636 6.85618326 0 0 Z " fill="#595758" transform="translate(273,492)"/>
<path d="M0 0 C2.1640625 0.2421875 2.1640625 0.2421875 4.625 0.875 C5.44226563 1.07867187 6.25953125 1.28234375 7.1015625 1.4921875 C7.72804688 1.65976562 8.35453125 1.82734375 9 2 C7.68 2.33 6.36 2.66 5 3 C5 3.66 5 4.32 5 5 C4.21625 4.95875 3.4325 4.9175 2.625 4.875 C-0.16116119 4.71271266 -0.16116119 4.71271266 -2 7 C-5.693507 7.20146402 -8.47940432 7.17353189 -12 6 C-12.5775 6.33 -13.155 6.66 -13.75 7 C-17.04153003 8.46290224 -19.54022698 7.70476858 -23 7 C-23.66 6.67 -24.32 6.34 -25 6 C-25.33 6.99 -25.66 7.98 -26 9 C-27.98 9 -29.96 9 -32 9 C-32 11.97 -32 14.94 -32 18 C-32.33 18 -32.66 18 -33 18 C-33 14.7 -33 11.4 -33 8 C-31.35 8 -29.7 8 -28 8 C-28 7.34 -28 6.68 -28 6 C-29.65 6 -31.3 6 -33 6 C-33 5.67 -33 5.34 -33 5 C-26.21299774 2.91169161 -20.01578282 3 -13 3 C-13 2.34 -13 1.68 -13 1 C-12.484375 1.165 -11.96875 1.33 -11.4375 1.5 C-8.22317332 2.15934906 -5.27153915 2.18175217 -2 2 C-1.34 1.34 -0.68 0.68 0 0 Z " fill="#FFCAE1" transform="translate(268,410)"/>
<path d="M0 0 C2.77020773 1.34313102 3.46213736 3.21026943 4.53515625 6.01171875 C5.33624596 9.03212364 5.25215171 11.90235543 5.0625 15 C1.1025 15 -2.8575 15 -6.9375 15 C-7.37493199 5.23068553 -7.37493199 5.23068553 -3.9375 1 C-1.9375 0 -1.9375 0 0 0 Z " fill="#FFDCEB" transform="translate(574.9375,395)"/>
<path d="M0 0 C2.5 1.625 2.5 1.625 4 4 C3.9375 7.125 3.9375 7.125 3 10 C-0.81022313 12.54014875 -3.53470816 12.58606955 -8 12 C-10 10.875 -10 10.875 -11 9 C-11.4375 6 -11.4375 6 -11 3 C-7.94006533 -0.67192161 -4.53695608 -0.56711951 0 0 Z " fill="#FF6EB6" transform="translate(403,374)"/>
<path d="M0 0 C0.99 0.495 0.99 0.495 2 1 C3.37342831 1.0689472 4.75002102 1.08467708 6.125 1.0625 C7.40375 1.041875 8.6825 1.02125 10 1 C10 5.95 10 10.9 10 16 C7.03 16 4.06 16 1 16 C1 17.98 1 19.96 1 22 C0.67 22 0.34 22 0 22 C0 14.74 0 7.48 0 0 Z " fill="#FFEA8E" transform="translate(476,46)"/>
<path d="M0 0 C0.99 0.495 0.99 0.495 2 1 C3.37342831 1.0689472 4.75002102 1.08467708 6.125 1.0625 C7.40375 1.041875 8.6825 1.02125 10 1 C10 5.95 10 10.9 10 16 C7.03 16 4.06 16 1 16 C0.67 16.66 0.34 17.32 0 18 C0 12.06 0 6.12 0 0 Z " fill="#FFECA1" transform="translate(448,46)"/>
<path d="M0 0 C0.05382106 2.62527189 0.09358313 5.24944713 0.125 7.875 C0.14175781 8.62136719 0.15851563 9.36773437 0.17578125 10.13671875 C0.1933959 12.09194461 0.10320189 14.04742021 0 16 C-2 18 -2 18 -5 18.25 C-8 18 -8 18 -10 16 C-10.67947422 9.09201213 -10.67947422 9.09201213 -8.25 5.1875 C-2.91428571 0 -2.91428571 0 0 0 Z " fill="#FFDDEB" transform="translate(490,413)"/>
<path d="M0 0 C1.46224799 0.42423244 2.91973412 0.86490245 4.375 1.3125 C5.59316406 1.67794922 5.59316406 1.67794922 6.8359375 2.05078125 C9 3 9 3 11 6 C10.15695312 5.98839844 9.31390625 5.97679687 8.4453125 5.96484375 C7.34960938 5.95582031 6.25390625 5.94679688 5.125 5.9375 C4.03445313 5.92589844 2.94390625 5.91429687 1.8203125 5.90234375 C-0.95177546 5.80255697 -0.95177546 5.80255697 -3 7 C-6.37822416 7.14375422 -8.77390955 7.07536348 -12 6 C-12.60328125 6.31710937 -13.2065625 6.63421875 -13.828125 6.9609375 C-16.69604629 8.33300056 -18.61904381 7.99773288 -21.75 7.625 C-23.22726562 7.45871094 -23.22726562 7.45871094 -24.734375 7.2890625 C-25.85585938 7.14597656 -25.85585938 7.14597656 -27 7 C-27.33 6.01 -27.66 5.02 -28 4 C-26.35 3.34 -24.7 2.68 -23 2 C-22.67 2.33 -22.34 2.66 -22 3 C-18.54178598 3.25003964 -18.54178598 3.25003964 -15 3 C-14.34 2.34 -13.68 1.68 -13 1 C-11.65835921 1.2981424 -10.32676508 1.64141484 -9 2 C-5.41642759 2.25015873 -5.41642759 2.25015873 -2 2 C-1.34 1.34 -0.68 0.68 0 0 Z " fill="#FFD1E7" transform="translate(719,410)"/>
<path d="M0 0 C0 1.32 0 2.64 0 4 C-0.99 4 -1.98 4 -3 4 C-3 5.32 -3 6.64 -3 8 C-1.68 8 -0.36 8 1 8 C1 9.32 1 10.64 1 12 C-0.32 12 -1.64 12 -3 12 C-3 17.28 -3 22.56 -3 28 C-4.32 28 -5.64 28 -7 28 C-7 22.39 -7 16.78 -7 11 C-7.66 11 -8.32 11 -9 11 C-9 10.01 -9 9.02 -9 8 C-8.34 8 -7.68 8 -7 8 C-7.0825 7.236875 -7.165 6.47375 -7.25 5.6875 C-7 3 -7 3 -5.1875 1.1875 C-3 0 -3 0 0 0 Z " fill="#575556" transform="translate(665,484)"/>
<path d="M0 0 C2.65400072 1.02076951 3.87857407 1.55808674 5.4375 3.9375 C5.98150387 7.59009739 5.87524093 9.2808886 3.8125 12.375 C1.4375 13.9375 1.4375 13.9375 -1.6875 13.875 C-4.5625 12.9375 -4.5625 12.9375 -6.5625 9.9375 C-7.03187082 6.26076194 -7.00659864 4.57897582 -4.875 1.5 C-2.5625 -0.0625 -2.5625 -0.0625 0 0 Z " fill="#F2D6E3" transform="translate(643.5625,495.0625)"/>
<path d="M0 0 C2.65400072 1.02076951 3.87857407 1.55808674 5.4375 3.9375 C5.98150387 7.59009739 5.87524093 9.2808886 3.8125 12.375 C1.4375 13.9375 1.4375 13.9375 -1.6875 13.875 C-4.5625 12.9375 -4.5625 12.9375 -6.5625 9.9375 C-7.03187082 6.26076194 -7.00659864 4.57897582 -4.875 1.5 C-2.5625 -0.0625 -2.5625 -0.0625 0 0 Z " fill="#F3D8E4" transform="translate(503.5625,495.0625)"/>
<path d="M0 0 C3.42201828 -0.37331109 5.90185629 -0.63763183 8.9375 1.125 C10.52990283 3.93512264 10.45319325 5.82764724 10 9 C8.375 11.4375 8.375 11.4375 6 13 C2.875 12.9375 2.875 12.9375 0 12 C-2.31332486 8.53001271 -2.33957563 7.07490752 -2 3 C-1.34 2.01 -0.68 1.02 0 0 Z " fill="#F5D7E6" transform="translate(731,496)"/>
<path d="M0 0 C0.33 0.66 0.66 1.32 1 2 C6.94 2 12.88 2 19 2 C19 2.33 19 2.66 19 3 C13.06 3 7.12 3 1 3 C-0.7181281 9.77311611 -0.7181281 9.77311611 -1.625 16.5 C-1.69976562 17.3559375 -1.77453125 18.211875 -1.8515625 19.09375 C-1.90054687 19.7228125 -1.94953125 20.351875 -2 21 C-0.02 21.33 1.96 21.66 4 22 C4 22.66 4 23.32 4 24 C-1.28 24 -6.56 24 -12 24 C-12 23.34 -12 22.68 -12 22 C-11.25363281 21.31550781 -10.50726563 20.63101562 -9.73828125 19.92578125 C-6.27066939 16.59516147 -4.86819456 12.61370001 -3.1875 8.1875 C-2.87619141 7.39923828 -2.56488281 6.61097656 -2.24414062 5.79882812 C-1.4844668 3.87042534 -0.74060119 1.93580772 0 0 Z " fill="#FF73B8" transform="translate(307,412)"/>
<path d="M0 0 C2.79780523 0.58901163 3.77358635 1.14002199 5.375 3.5 C5.375 4.82 5.375 6.14 5.375 7.5 C2.405 7.5 -0.565 7.5 -3.625 7.5 C-2.965 9.81 -2.305 12.12 -1.625 14.5 C1.98492379 13.84414811 1.98492379 13.84414811 5.375 12.5 C4.715 13.82 4.055 15.14 3.375 16.5 C-3.12340764 16.86783439 -3.12340764 16.86783439 -5.5 15.125 C-7.79712797 11.80692627 -8.09943748 9.5327186 -7.625 5.5 C-5.27923618 2.41699612 -3.8582693 0.73490844 0 0 Z " fill="#877E81" transform="translate(518.625,322.5)"/>
<path d="M0 0 C0.99 0 1.98 0 3 0 C3 6.27 3 12.54 3 19 C3.99 18.67 4.98 18.34 6 18 C6.33 17.34 6.66 16.68 7 16 C7.66 16 8.32 16 9 16 C8.938125 14.741875 8.87625 13.48375 8.8125 12.1875 C8.79173989 8.27768014 8.79173989 8.27768014 10.5 6 C10.995 5.67 11.49 5.34 12 5 C12.66 5.33 13.32 5.66 14 6 C13.67 6.66 13.34 7.32 13 8 C12.58492826 14.31645868 12.58492826 14.31645868 15 20 C13.68 19.67 12.36 19.34 11 19 C11 18.34 11 17.68 11 17 C10.01 17 9.02 17 8 17 C7.67 17.99 7.34 18.98 7 20 C4.625 20.125 4.625 20.125 2 20 C0 18 0 18 -0.22705078 16.12060547 C-0.21657715 15.37697754 -0.20610352 14.63334961 -0.1953125 13.8671875 C-0.18886719 13.06152344 -0.18242188 12.25585938 -0.17578125 11.42578125 C-0.15064453 10.16314453 -0.15064453 10.16314453 -0.125 8.875 C-0.11597656 8.02550781 -0.10695313 7.17601562 -0.09765625 6.30078125 C-0.07405647 4.20040116 -0.03818483 2.10016556 0 0 Z " fill="#726C6F" transform="translate(535,319)"/>
<path d="M0 0 C1.32 0 2.64 0 4 0 C4 8.91 4 17.82 4 27 C2.68 27 1.36 27 0 27 C0 18.09 0 9.18 0 0 Z " fill="#545353" transform="translate(384,485)"/>
<path d="M0 0 C2.475 0.495 2.475 0.495 5 1 C7.72502965 0.62277985 7.72502965 0.62277985 10 0 C10 1.32 10 2.64 10 4 C8.35 4.66 6.7 5.32 5 6 C4.67 10.62 4.34 15.24 4 20 C2.68 20 1.36 20 0 20 C0 13.4 0 6.8 0 0 Z " fill="#535252" transform="translate(211,492)"/>
<path d="M0 0 C1.32 0 2.64 0 4 0 C4 0.66 4 1.32 4 2 C4.99 1.34 5.98 0.68 7 0 C7.99 0 8.98 0 10 0 C10 1.32 10 2.64 10 4 C8.35 4.66 6.7 5.32 5 6 C4.67 10.62 4.34 15.24 4 20 C2.68 20 1.36 20 0 20 C0 13.4 0 6.8 0 0 Z " fill="#535152" transform="translate(318,492)"/>
<path d="M0 0 C2.8125 1 2.8125 1 4.8125 4 C4.8125 4.99 4.8125 5.98 4.8125 7 C1.5125 7 -1.7875 7 -5.1875 7 C-4.55939827 9.97017694 -4.55939827 9.97017694 -3.1875 13 C-0.67754504 14.43923199 -0.67754504 14.43923199 1.8125 15 C1.8125 15.33 1.8125 15.66 1.8125 16 C-1.5 16.3125 -1.5 16.3125 -5.1875 16 C-7.578259 13.37787723 -8.10767856 11.47892866 -8.6875 8 C-7.83542567 2.88755405 -5.28671375 0 0 0 Z " fill="#6F6A6B" transform="translate(438.1875,323)"/>
<path d="M0 0 C4.19305185 -0.41108351 6.28112583 -0.5370899 9.71875 2.03125 C12.53725155 5.69916298 12.58759869 8.38975958 12.3125 12.8125 C12.27866211 13.85180664 12.27866211 13.85180664 12.24414062 14.91210938 C12.18562661 16.60901573 12.0959548 18.30479861 12 20 C10.68 20 9.36 20 8 20 C7.94392578 18.51886719 7.94392578 18.51886719 7.88671875 17.0078125 C7.82097656 15.72648437 7.75523437 14.44515625 7.6875 13.125 C7.62949219 11.84882813 7.57148437 10.57265625 7.51171875 9.2578125 C7.34285156 8.18273437 7.17398438 7.10765625 7 6 C4.04622502 3.63019987 4.04622502 3.63019987 0 4 C0 2.68 0 1.36 0 0 Z " fill="#595658" transform="translate(800,492)"/>
<path d="M0 0 C2.97 0 5.94 0 9 0 C9.36248013 7.37042925 9.36248013 7.37042925 7.8125 10.0625 C5.23719907 11.3945522 3.70282604 10.85352401 1 10 C0 9 0 9 -0.09765625 6.93359375 C-0.06510417 4.62239583 -0.03255208 2.31119792 0 0 Z " fill="#FFDB22" transform="translate(506,71)"/>
<path d="M0 0 C2.97 0 5.94 0 9 0 C9.36248013 7.37042925 9.36248013 7.37042925 7.8125 10.0625 C5.23719907 11.3945522 3.70282604 10.85352401 1 10 C0 9 0 9 -0.09765625 6.93359375 C-0.06510417 4.62239583 -0.03255208 2.31119792 0 0 Z " fill="#FFDB22" transform="translate(477,71)"/>
<path d="M0 0 C3.96 0 7.92 0 12 0 C13.87404046 4.68510114 14.19157797 7.11476189 14 12 C13.67 12 13.34 12 13 12 C13 10.02 13 8.04 13 6 C8.38 6 3.76 6 -1 6 C-0.67 4.02 -0.34 2.04 0 0 Z " fill="#FFD334" transform="translate(475,30)"/>
<path d="M0 0 C1.32 0 2.64 0 4 0 C4 6.6 4 13.2 4 20 C2.68 20 1.36 20 0 20 C0 13.4 0 6.8 0 0 Z " fill="#555354" transform="translate(549,492)"/>
<path d="M0 0 C1.32 0 2.64 0 4 0 C4 6.6 4 13.2 4 20 C2.68 20 1.36 20 0 20 C0 13.4 0 6.8 0 0 Z " fill="#535152" transform="translate(456,492)"/>
<path d="M0 0 C1.32 0 2.64 0 4 0 C4 6.6 4 13.2 4 20 C2.68 20 1.36 20 0 20 C0 13.4 0 6.8 0 0 Z " fill="#5A5859" transform="translate(394,492)"/>
<path d="M0 0 C2.97 0 5.94 0 9 0 C9 2.64 9 5.28 9 8 C6.03 8 3.06 8 0 8 C0 9.98 0 11.96 0 14 C-0.33 14 -0.66 14 -1 14 C-1.08333357 9.1666528 -0.95261487 4.76307437 0 0 Z " fill="#FFEA8E" transform="translate(506,54)"/>
<path d="M0 0 C0.99 0.33 1.98 0.66 3 1 C3.84375 3.1796875 3.84375 3.1796875 4.5 5.875 C5.37720499 9.45692036 6.03477998 11.69698793 9 14 C11.60611077 14.72197162 11.60611077 14.72197162 14 15 C12.25 16.125 12.25 16.125 10 17 C7.9375 16.125 7.9375 16.125 6 15 C5.01 15 4.02 15 3 15 C2.67 15.66 2.34 16.32 2 17 C1.34 17 0.68 17 0 17 C0 11.39 0 5.78 0 0 Z " fill="#FF7EBE" transform="translate(633,420)"/>
<path d="M0 0 C4.29 0 8.58 0 13 0 C12.67 1.65 12.34 3.3 12 5 C8.53076119 7.31282587 7.07794425 7.42478586 3 7 C1.125 5.75 1.125 5.75 0 4 C0 2.68 0 1.36 0 0 Z " fill="#FE9410" transform="translate(504,41)"/>
<path d="M0 0 C4.29 0 8.58 0 13 0 C12.67 1.65 12.34 3.3 12 5 C8.53076119 7.31282587 7.07794425 7.42478586 3 7 C1.125 5.75 1.125 5.75 0 4 C0 2.68 0 1.36 0 0 Z " fill="#FE9410" transform="translate(447,41)"/>
<path d="M0 0 C1.65 0 3.3 0 5 0 C5 7.26 5 14.52 5 22 C5.66 22.33 6.32 22.66 7 23 C4.69 23 2.38 23 0 23 C0.66 22.67 1.32 22.34 2 22 C2 15.07 2 8.14 2 1 C1.34 0.67 0.68 0.34 0 0 Z " fill="#666263" transform="translate(445,316)"/>
<path d="M0 0 C1.32 0 2.64 0 4 0 C4.27714844 0.85464844 4.55429687 1.70929688 4.83984375 2.58984375 C5.20207031 3.69457031 5.56429688 4.79929687 5.9375 5.9375 C6.29714844 7.03964844 6.65679687 8.14179688 7.02734375 9.27734375 C7.73856668 11.88123475 7.73856668 11.88123475 9 13 C9.66 11.02 10.32 9.04 11 7 C12.25127906 10.54667178 11.72285053 12.72253438 10.5625 16.25 C10.27503906 17.14203125 9.98757813 18.0340625 9.69140625 18.953125 C9.46324219 19.62859375 9.23507812 20.3040625 9 21 C8.34 21 7.68 21 7 21 C4.69 14.07 2.38 7.14 0 0 Z " fill="#7D7678" transform="translate(415,318)"/>
<path d="M0 0 C0.99 0.495 0.99 0.495 2 1 C3.37342831 1.0689472 4.75002102 1.08467708 6.125 1.0625 C7.40375 1.041875 8.6825 1.02125 10 1 C10 3.31 10 5.62 10 8 C7.03 8 4.06 8 1 8 C1 9.98 1 11.96 1 14 C0.67 14 0.34 14 0 14 C0 9.38 0 4.76 0 0 Z " fill="#FEEEC0" transform="translate(476,46)"/>
<path d="M0 0 C4.62 0 9.24 0 14 0 C14 1.65 14 3.3 14 5 C9.38 5.33 4.76 5.66 0 6 C0 4.02 0 2.04 0 0 Z " fill="#FEBC07" transform="translate(474,36)"/>
<path d="M0 0 C0.66 0 1.32 0 2 0 C4.1875 2.1875 4.1875 2.1875 6 5 C5.70731707 9.29268293 5.70731707 9.29268293 4 11 C1.5625 11.1875 1.5625 11.1875 -1 11 C-1.66 10.34 -2.32 9.68 -3 9 C-2.67582137 5.19090105 -2.14418558 3.21627837 0 0 Z " fill="#FF7EBD" transform="translate(253,378)"/>
<path d="M0 0 C2.97 0 5.94 0 9 0 C9 1.98 9 3.96 9 6 C6.03 6 3.06 6 0 6 C0 9.63 0 13.26 0 17 C-0.33 17 -0.66 17 -1 17 C-1.02691685 14.54159395 -1.04679802 12.08348118 -1.0625 9.625 C-1.07087891 8.92632812 -1.07925781 8.22765625 -1.08789062 7.5078125 C-1.11328125 2.2265625 -1.11328125 2.2265625 0 0 Z " fill="#FFE56C" transform="translate(449,62)"/>
<path d="M0 0 C3.375 -0.125 3.375 -0.125 7 0 C9 2 9 2 9.1875 4.5625 C9 7 9 7 8 8 C5.32941149 8.14115161 2.67567762 8.04247107 0 8 C0 5.36 0 2.72 0 0 Z " fill="#F2D7E3" transform="translate(532,490)"/>
<path d="M0 0 C2.3125 2.5 2.3125 2.5 4 5 C3.67 5.66 3.34 6.32 3 7 C1.1746875 6.9690625 1.1746875 6.9690625 -0.6875 6.9375 C-3.91977322 6.93175884 -6.84934741 7.21233685 -10 8 C-9.1875 4.5625 -9.1875 4.5625 -8 1 C-4.93309225 -0.02230258 -3.18373032 -0.46591175 0 0 Z " fill="#FFEBA0" transform="translate(513,26)"/>
<path d="M0 0 C1.9375 0.5625 1.9375 0.5625 4 2 C4.875 5.5 4.875 5.5 5 9 C4.34 9.66 3.68 10.32 3 11 C0.375 10.625 0.375 10.625 -2 10 C-3.06351675 6.61608307 -3.21442982 5.4195366 -1.5625 2.1875 C-1.046875 1.465625 -0.53125 0.74375 0 0 Z " fill="#FF7ABC" transform="translate(692,379)"/>
<path d="M0 0 C0.99 0.495 0.99 0.495 2 1 C3.37342831 1.0689472 4.75002102 1.08467708 6.125 1.0625 C7.40375 1.041875 8.6825 1.02125 10 1 C10 3.31 10 5.62 10 8 C7.03 8 4.06 8 1 8 C0.67 8.66 0.34 9.32 0 10 C0 6.7 0 3.4 0 0 Z " fill="#FEEEC1" transform="translate(448,46)"/>
<path d="M0 0 C0.99 0 1.98 0 3 0 C4.75 2.1875 4.75 2.1875 6 5 C5.6875 7.8125 5.6875 7.8125 5 10 C0.25 11.125 0.25 11.125 -2 10 C-1.54177532 6.53058454 -1.10868317 3.32604951 0 0 Z " fill="#FF77BB" transform="translate(704,378)"/>
<path d="M0 0 C0.99 0.33 1.98 0.66 3 1 C4.56118428 1.06740865 6.1250252 1.08514456 7.6875 1.0625 C8.49574219 1.05347656 9.30398437 1.04445313 10.13671875 1.03515625 C10.75160156 1.02355469 11.36648437 1.01195312 12 1 C11.67 1.66 11.34 2.32 11 3 C9.02 3 7.04 3 5 3 C5 3.66 5 4.32 5 5 C6.32 5.33 7.64 5.66 9 6 C2.25 5.125 2.25 5.125 0 4 C-0.33 4.99 -0.66 5.98 -1 7 C-2.98 7 -4.96 7 -7 7 C-7 9.97 -7 12.94 -7 16 C-7.33 16 -7.66 16 -8 16 C-8 12.7 -8 9.4 -8 6 C-6.35 6 -4.7 6 -3 6 C-3 5.34 -3 4.68 -3 4 C-4.65 4 -6.3 4 -8 4 C-8 3.67 -8 3.34 -8 3 C-6.865625 2.690625 -5.73125 2.38125 -4.5625 2.0625 C-1.21224901 1.37075469 -1.21224901 1.37075469 0 0 Z " fill="#FFC0DC" transform="translate(243,412)"/>
<path d="M0 0 C1.65 0 3.3 0 5 0 C5.86881541 2.55834571 6.7202133 5.12042461 7.5625 7.6875 C7.80935547 8.40873047 8.05621094 9.12996094 8.31054688 9.87304688 C9.63020068 13.94352832 10.38992772 16.78027933 9 21 C8.34 21 7.68 21 7 21 C6.66226562 19.81921875 6.32453125 18.6384375 5.9765625 17.421875 C5.52624434 15.86452471 5.07571229 14.30723627 4.625 12.75 C4.40328125 11.97269531 4.1815625 11.19539063 3.953125 10.39453125 C3.62441406 9.26337891 3.62441406 9.26337891 3.2890625 8.109375 C3.09006348 7.41811523 2.89106445 6.72685547 2.68603516 6.01464844 C1.96429564 3.89514862 1.04352538 1.97843103 0 0 Z " fill="#5F5C5D" transform="translate(404,318)"/>
<path d="M0 0 C2.5625 2.1875 2.5625 2.1875 5 5 C4.8125 7.8125 4.8125 7.8125 4 10 C1.625 10.625 1.625 10.625 -1 11 C-1.66 10.34 -2.32 9.68 -3 9 C-2.53846154 2.53846154 -2.53846154 2.53846154 0 0 Z " fill="#FF77BA" transform="translate(241,379)"/>
<path d="M0 0 C2.5625 2.1875 2.5625 2.1875 5 5 C4.8125 7.8125 4.8125 7.8125 4 10 C1.625 10.625 1.625 10.625 -1 11 C-1.66 10.34 -2.32 9.68 -3 9 C-2.53846154 2.53846154 -2.53846154 2.53846154 0 0 Z " fill="#FF77BA" transform="translate(266,377)"/>
<path d="M0 0 C0.99 0 1.98 0 3 0 C5.29404844 3.44107266 5.26293056 4.96839809 5 9 C4 10 4 10 1.5625 10.1875 C-1 10 -1 10 -3 8 C-2.64700993 4.55834679 -1.95418308 2.93127462 0 0 Z " fill="#FF75BA" transform="translate(717,378)"/>
<path d="M0 0 C0.66 0 1.32 0 2 0 C2 4.62 2 9.24 2 14 C1.01 13.67 0.02 13.34 -1 13 C-1.28875 11.9275 -1.5775 10.855 -1.875 9.75 C-3.13702785 5.5432405 -4.7298412 3.83987475 -8 1 C-5.36 1.33 -2.72 1.66 0 2 C0 1.34 0 0.68 0 0 Z " fill="#FF7DBD" transform="translate(660,394)"/>
<path d="M0 0 C2.4294516 3.6441774 2.16179575 5.71241272 2 10 C1.67 10 1.34 10 1 10 C1 8.02 1 6.04 1 4 C-3.62 4 -8.24 4 -13 4 C-12.67 3.01 -12.34 2.02 -12 1 C-8.29968948 -0.62813663 -3.94004057 -0.25419617 0 0 Z " fill="#FFD334" transform="translate(516,32)"/>
<path d="M0 0 C-0.639375 0.309375 -1.27875 0.61875 -1.9375 0.9375 C-3.93610821 1.8345163 -3.93610821 1.8345163 -5 3 C-5.07205511 4.68608966 -5.08386068 6.37500659 -5.0625 8.0625 C-5.05347656 8.98160156 -5.04445313 9.90070313 -5.03515625 10.84765625 C-5.02355469 11.55792969 -5.01195312 12.26820313 -5 13 C-2.64632287 13.6878236 -2.64632287 13.6878236 0 14 C0.99 13.34 1.98 12.68 3 12 C2.34 13.32 1.68 14.64 1 16 C-5.3782235 16.48137536 -5.3782235 16.48137536 -7.9375 14.5 C-9.45013189 10.94086615 -9.70194375 7.80609501 -9 4 C-6.43823763 0.20479649 -4.49728961 -0.49969885 0 0 Z " fill="#646061" transform="translate(463,323)"/>
<path d="M0 0 C2.97 0 5.94 0 9 0 C9 1.98 9 3.96 9 6 C6.03 6 3.06 6 0 6 C0 4.02 0 2.04 0 0 Z " fill="#FFDF3C" transform="translate(449,68)"/>
<path d="M0 0 C2.625 0.375 2.625 0.375 5 1 C5.625 3.375 5.625 3.375 6 6 C4 8 4 8 1.375 8.125 C0.59125 8.08375 -0.1925 8.0425 -1 8 C-1.625 5.125 -1.625 5.125 -2 2 C-1.34 1.34 -0.68 0.68 0 0 Z " fill="#90CCEB" transform="translate(465,145)"/>
<path d="M0 0 C2.97 0.495 2.97 0.495 6 1 C6 5.62 6 10.24 6 15 C6.66 15.33 7.32 15.66 8 16 C6.02 16 4.04 16 2 16 C2.33 11.05 2.66 6.1 3 1 C2.01 0.67 1.02 0.34 0 0 Z " fill="#6B6668" transform="translate(501,323)"/>
<path d="M0 0 C2.625 0.375 2.625 0.375 5 1 C5.625 3.375 5.625 3.375 6 6 C5.34 6.66 4.68 7.32 4 8 C1.375 7.625 1.375 7.625 -1 7 C-1.625 4.625 -1.625 4.625 -2 2 C-1.34 1.34 -0.68 0.68 0 0 Z " fill="#A3EFA3" transform="translate(484,169)"/>
<path d="M0 0 C2.625 0.375 2.625 0.375 5 1 C5.625 3.375 5.625 3.375 6 6 C5.34 6.66 4.68 7.32 4 8 C1.375 7.625 1.375 7.625 -1 7 C-1.625 4.625 -1.625 4.625 -2 2 C-1.34 1.34 -0.68 0.68 0 0 Z " fill="#FDD60A" transform="translate(446,157)"/>
<path d="M0 0 C2.625 0.375 2.625 0.375 5 1 C5.625 3.375 5.625 3.375 6 6 C5.34 6.66 4.68 7.32 4 8 C1.375 7.625 1.375 7.625 -1 7 C-1.625 4.625 -1.625 4.625 -2 2 C-1.34 1.34 -0.68 0.68 0 0 Z " fill="#FD70B8" transform="translate(427,134)"/>
<path d="M0 0 C2.4375 0.375 2.4375 0.375 5 1 C6.38226016 3.76452033 6.09525387 6.0461363 6.0625 9.125 C6.05347656 10.22070312 6.04445313 11.31640625 6.03515625 12.4453125 C6.02355469 13.28835938 6.01195312 14.13140625 6 15 C6.66 15.33 7.32 15.66 8 16 C6.02 16 4.04 16 2 16 C2.33 11.05 2.66 6.1 3 1 C2.01 0.67 1.02 0.34 0 0 Z " fill="#696466" transform="translate(492,323)"/>
<path d="M0 0 C3.63 0 7.26 0 11 0 C11.33 1.32 11.66 2.64 12 4 C7.71 4 3.42 4 -1 4 C-0.67 2.68 -0.34 1.36 0 0 Z " fill="#FEDD59" transform="translate(448,30)"/>
<path d="M0 0 C0.33 0.66 0.66 1.32 1 2 C6.94 2 12.88 2 19 2 C19 2.33 19 2.66 19 3 C13.06 3 7.12 3 1 3 C0.01 8.28 -0.98 13.56 -2 19 C-2.33 19 -2.66 19 -3 19 C-4.46139097 11.44947999 -3.34453926 6.87568372 0 0 Z " fill="#FF8DC4" transform="translate(307,412)"/>
<path d="M0 0 C0.99 0 1.98 0 3 0 C3 4.62 3 9.24 3 14 C3.66 14.33 4.32 14.66 5 15 C2.69 15 0.38 15 -2 15 C-1.34 14.67 -0.68 14.34 0 14 C0 9.38 0 4.76 0 0 Z " fill="#686466" transform="translate(486,324)"/>
<path d="M0 0 C0 1.65 0 3.3 0 5 C-2.3260857 5.38063221 -4.66055264 5.71269945 -7 6 C-8 5 -8 5 -8.0625 2.4375 C-8.041875 1.633125 -8.02125 0.82875 -8 0 C-5.13822943 -1.43088528 -3.06624227 -0.59991697 0 0 Z " fill="#EF85CD" transform="translate(527,166)"/>
<path d="M0 0 C2.625 0.375 2.625 0.375 5 1 C5.38218767 2.65614657 5.71395102 4.32457024 6 6 C5 7 5 7 1.9375 7.0625 C0.968125 7.041875 -0.00125 7.02125 -1 7 C-1.625 4.625 -1.625 4.625 -2 2 C-1.34 1.34 -0.68 0.68 0 0 Z " fill="#B9D4A5" transform="translate(512,200)"/>
<path d="M0 0 C0.66 0.33 1.32 0.66 2 1 C1.67 1.66 1.34 2.32 1 3 C0.80331266 4.91403076 0.80331266 4.91403076 0.8125 7 C0.79832031 7.70125 0.78414063 8.4025 0.76953125 9.125 C0.83487677 11.24524938 0.83487677 11.24524938 3 13 C4.31747324 13.69748583 5.64914193 14.36959957 7 15 C3.6875 15.3125 3.6875 15.3125 0 15 C-2.43551204 12.32879325 -2.93780059 10.50796189 -3.375 6.9375 C-2.9633342 3.71278459 -2.1773029 2.35874481 0 0 Z " fill="#635F60" transform="translate(433,324)"/>
<path d="M0 0 C2.31 0.33 4.62 0.66 7 1 C6.67 2.65 6.34 4.3 6 6 C3.625 6.625 3.625 6.625 1 7 C0.34 6.34 -0.32 5.68 -1 5 C-0.625 2.375 -0.625 2.375 0 0 Z " fill="#B3B6DD" transform="translate(473,206)"/>
<path d="M0 0 C3.14839906 -0.34982212 4.62023779 -0.24633224 7.3125 1.5 C9.66375034 4.98333384 9.72953278 7.90790807 9 12 C7.5 14.5 7.5 14.5 6 16 C5.01 15.67 4.02 15.34 3 15 C3.66 14.34 4.32 13.68 5 13 C5.24287489 10.55987051 5.24287489 10.55987051 5.125 7.875 C5.09792969 6.50988281 5.09792969 6.50988281 5.0703125 5.1171875 C5.04710937 4.41851562 5.02390625 3.71984375 5 3 C2.525 2.01 2.525 2.01 0 1 C0 0.67 0 0.34 0 0 Z " fill="#686466" transform="translate(549,323)"/>
<path d="M0 0 C3.14839906 -0.34982212 4.62023779 -0.24633224 7.3125 1.5 C9.66375034 4.98333384 9.72953278 7.90790807 9 12 C7.5 14.5 7.5 14.5 6 16 C5.01 15.67 4.02 15.34 3 15 C3.66 14.34 4.32 13.68 5 13 C5.24287489 10.55987051 5.24287489 10.55987051 5.125 7.875 C5.09792969 6.50988281 5.09792969 6.50988281 5.0703125 5.1171875 C5.04710937 4.41851562 5.02390625 3.71984375 5 3 C2.525 2.01 2.525 2.01 0 1 C0 0.67 0 0.34 0 0 Z " fill="#686466" transform="translate(473,323)"/>
<path d="M0 0 C0.66 0.99 1.32 1.98 2 3 C1.201718 5.59143784 0.33573635 7.9082832 -0.75 10.375 C-1.0284375 11.035 -1.306875 11.695 -1.59375 12.375 C-2.38714264 14.2536939 -3.19328667 16.12698738 -4 18 C-4.67268728 19.66424579 -5.34223752 21.32979919 -6 23 C-6.66 22.67 -7.32 22.34 -8 22 C-5.92957946 14.39162534 -3.14169523 7.2271408 0 0 Z " fill="#FF83C0" transform="translate(316,389)"/>
<path d="M0 0 C1.67542976 0.28604898 3.34385343 0.61781233 5 1 C6.125 4.75 6.125 4.75 5 7 C2.625 7.125 2.625 7.125 0 7 C-0.66 6.34 -1.32 5.68 -2 5 C-1.46428571 1.46428571 -1.46428571 1.46428571 0 0 Z " fill="#E398D6" transform="translate(530,215)"/>
<path d="M0 0 C2.64 0 5.28 0 8 0 C8.042721 1.66611905 8.04063832 3.33382885 8 5 C7 6 7 6 4.5625 6.1875 C2 6 2 6 0 4 C0 2.68 0 1.36 0 0 Z " fill="#FCD2E4" transform="translate(168,0)"/>
<path d="M0 0 C2.625 0.25 2.625 0.25 4.4375 1.625 C5.625 3.25 5.625 3.25 5.625 5.25 C1.995 5.25 -1.635 5.25 -5.375 5.25 C-2.90277778 0.30555556 -2.90277778 0.30555556 0 0 Z " fill="#EED1DF" transform="translate(779.375,494.75)"/>
<path d="M0 0 C2.6875 0.3125 2.6875 0.3125 5 1 C4.67 2.65 4.34 4.3 4 6 C2.35 6.33 0.7 6.66 -1 7 C-1.66 5.68 -2.32 4.36 -3 3 C-1.8125 1.4375 -1.8125 1.4375 0 0 Z " fill="#DDA6E2" transform="translate(503,142)"/>
<path d="M0 0 C2.64 0 5.28 0 8 0 C7.67 1.65 7.34 3.3 7 5 C2.25 6.125 2.25 6.125 0 5 C0 3.35 0 1.7 0 0 Z " fill="#FDD1E2" transform="translate(156,0)"/>
<path d="M0 0 C2.9375 0.1875 2.9375 0.1875 6 1 C6.66 2.32 7.32 3.64 8 5 C4.37 5 0.74 5 -3 5 C-1 1 -1 1 0 0 Z " fill="#F1D4E2" transform="translate(710,495)"/>
<path d="M0 0 C0.33 1.32 0.66 2.64 1 4 C-2.3 4 -5.6 4 -9 4 C-8.67 2.68 -8.34 1.36 -8 0 C-5.13822943 -1.43088528 -3.06624227 -0.59991697 0 0 Z " fill="#F0D7E1" transform="translate(437,496)"/>
<path d="M0 0 C0.33 1.32 0.66 2.64 1 4 C-2.3 4 -5.6 4 -9 4 C-8.67 2.68 -8.34 1.36 -8 0 C-5.13822943 -1.43088528 -3.06624227 -0.59991697 0 0 Z " fill="#F0D9E1" transform="translate(237,496)"/>
<path d="M0 0 C0.33 1.32 0.66 2.64 1 4 C-2.3 4 -5.6 4 -9 4 C-8.67 2.68 -8.34 1.36 -8 0 C-5.13822943 -1.43088528 -3.06624227 -0.59991697 0 0 Z " fill="#F0DAE1" transform="translate(201,496)"/>
<path d="M0 0 C1.67542976 0.28604898 3.34385343 0.61781233 5 1 C5 2.65 5 4.3 5 6 C0.25 7.125 0.25 7.125 -2 6 C-1.125 1.125 -1.125 1.125 0 0 Z " fill="#FFC54C" transform="translate(437,194)"/>
<path d="M0 0 C0.66 0.33 1.32 0.66 2 1 C1.67 1.66 1.34 2.32 1 3 C0.58492826 9.31645868 0.58492826 9.31645868 3 15 C0.48087612 14.66411682 -0.67196119 14.42645046 -2.25 12.375 C-3.28318998 9.10323174 -3.30985589 6.4084148 -3 3 C-1.5 1.0625 -1.5 1.0625 0 0 Z " fill="#676364" transform="translate(471,324)"/>
<path d="M0 0 C1.65625 2.01953125 1.65625 2.01953125 3 4 C1.84371094 4.05607422 1.84371094 4.05607422 0.6640625 4.11328125 C-0.84027344 4.21189453 -0.84027344 4.21189453 -2.375 4.3125 C-3.37273437 4.37050781 -4.37046875 4.42851562 -5.3984375 4.48828125 C-6.25695312 4.65714844 -7.11546875 4.82601563 -8 5 C-8.66 5.99 -9.32 6.98 -10 8 C-9.125 3.25 -9.125 3.25 -8 1 C-4.97923697 -0.00692101 -3.1408885 -0.39261106 0 0 Z " fill="#FFEA9F" transform="translate(456,26)"/>
<path d="M0 0 C2.00720923 0.28674418 4.0085944 0.61866701 6 1 C6.33 2.32 6.66 3.64 7 5 C3.7 5 0.4 5 -3 5 C-1 1 -1 1 0 0 Z " fill="#F4D8E5" transform="translate(609,495)"/>
<path d="M0 0 C2.00720923 0.28674418 4.0085944 0.61866701 6 1 C6.33 2.32 6.66 3.64 7 5 C3.7 5 0.4 5 -3 5 C-1 1 -1 1 0 0 Z " fill="#F4D8E5" transform="translate(565,495)"/>
<path d="M0 0 C2.00720923 0.28674418 4.0085944 0.61866701 6 1 C6.33 2.32 6.66 3.64 7 5 C3.7 5 0.4 5 -3 5 C-1 1 -1 1 0 0 Z " fill="#F4DCE5" transform="translate(302,495)"/>
<path d="M0 0 C2.96175123 0.61277612 4.38058783 1.25372522 7 3 C7 3.66 7 4.32 7 5 C6.05125 4.979375 5.1025 4.95875 4.125 4.9375 C1.09333717 4.77448174 1.09333717 4.77448174 -1 6 C-2.99960012 6.039992 -5.00047242 6.04346799 -7 6 C-7 5.34 -7 4.68 -7 4 C-5.02 3.67 -3.04 3.34 -1 3 C-0.67 2.01 -0.34 1.02 0 0 Z " fill="#FFDEEA" transform="translate(255,411)"/>
<path d="M0 0 C2.31 0 4.62 0 7 0 C7.042721 1.66611905 7.04063832 3.33382885 7 5 C6 6 6 6 3.4375 6.0625 C2.2309375 6.0315625 2.2309375 6.0315625 1 6 C0.67 4.02 0.34 2.04 0 0 Z " fill="#FAD2E5" transform="translate(181,0)"/>
<path d="M0 0 C0.33 0 0.66 0 1 0 C1.66 2.64 2.32 5.28 3 8 C5.35367713 8.6878236 5.35367713 8.6878236 8 9 C8.99 8.34 9.98 7.68 11 7 C10.34 8.32 9.68 9.64 9 11 C2.65492958 11.35915493 2.65492958 11.35915493 0.0625 9.9375 C-1.57183566 6.95724086 -1.24622562 4.32404589 -1 1 C-0.67 0.67 -0.34 0.34 0 0 Z " fill="#635F61" transform="translate(513,328)"/>
<path d="M0 0 C2.97 0 5.94 0 9 0 C9 1.32 9 2.64 9 4 C6.03 4 3.06 4 0 4 C0 2.68 0 1.36 0 0 Z " fill="#FFE671" transform="translate(506,62)"/>
<path d="M0 0 C2.97 0 5.94 0 9 0 C9 1.32 9 2.64 9 4 C6.03 4 3.06 4 0 4 C0 2.68 0 1.36 0 0 Z " fill="#FFE671" transform="translate(477,62)"/>
<path d="M0 0 C0.99 1.32 1.98 2.64 3 4 C-0.96 4 -4.92 4 -9 4 C-8.67 3.01 -8.34 2.02 -8 1 C-4.97923697 -0.00692101 -3.1408885 -0.39261106 0 0 Z " fill="#FFEBA0" transform="translate(484,26)"/>
<path d="M0 0 C1.65 0 3.3 0 5 0 C5.38218767 1.65614657 5.71395102 3.32457024 6 5 C5 6 5 6 2.4375 6.0625 C1.2309375 6.0315625 1.2309375 6.0315625 0 6 C-1.125 2.25 -1.125 2.25 0 0 Z " fill="#FEDDEA" transform="translate(127,507)"/>
<path d="M0 0 C0.66 0.33 1.32 0.66 2 1 C1.67 1.66 1.34 2.32 1 3 C0.58492826 9.31645868 0.58492826 9.31645868 3 15 C1.0625 14.625 1.0625 14.625 -1 14 C-2.23887548 11.52224905 -2.16741669 9.76346293 -2.1875 7 C-2.20167969 6.113125 -2.21585938 5.22625 -2.23046875 4.3125 C-2 2 -2 2 0 0 Z " fill="#5D5A5B" transform="translate(547,324)"/>
<path d="M0 0 C3.96 0 7.92 0 12 0 C12 0.99 12 1.98 12 3 C8.04 3 4.08 3 0 3 C-0.33 3.99 -0.66 4.98 -1 6 C-0.67 4.02 -0.34 2.04 0 0 Z " fill="#FEDF69" transform="translate(475,30)"/>
<path d="M0 0 C1.32 0 2.64 0 4 0 C5.42258812 3.82320557 6.24042276 6.91281305 6 11 C5.01 11.495 5.01 11.495 4 12 C2.68 8.04 1.36 4.08 0 0 Z " fill="#595758" transform="translate(415,318)"/>
<path d="M0 0 C3.96 0 7.92 0 12 0 C12 0.99 12 1.98 12 3 C10.1746875 2.9690625 10.1746875 2.9690625 8.3125 2.9375 C5.08022678 2.93175884 2.15065259 3.21233685 -1 4 C-0.67 2.68 -0.34 1.36 0 0 Z " fill="#FEE06C" transform="translate(504,30)"/>
<path d="M0 0 C1.32 0.33 2.64 0.66 4 1 C4.33 2.32 4.66 3.64 5 5 C2.69 5 0.38 5 -2 5 C-1.34 3.35 -0.68 1.7 0 0 Z " fill="#F0D9E1" transform="translate(435,324)"/>
<path d="M0 0 C2.97 0 5.94 0 9 0 C9 0.99 9 1.98 9 3 C4.545 3.495 4.545 3.495 0 4 C0 2.68 0 1.36 0 0 Z " fill="#FFEDA6" transform="translate(506,54)"/>
<path d="M0 0 C2.97 0 5.94 0 9 0 C9 0.99 9 1.98 9 3 C4.545 3.495 4.545 3.495 0 4 C0 2.68 0 1.36 0 0 Z " fill="#FFEDA6" transform="translate(477,54)"/>
<path d="M0 0 C1.32 0 2.64 0 4 0 C4.33 1.65 4.66 3.3 5 5 C3.02 5 1.04 5 -1 5 C-0.67 3.35 -0.34 1.7 0 0 Z " fill="#F3DAE3" transform="translate(516,324)"/>
<path d="M0 0 C2.64 0 5.28 0 8 0 C8 0.99 8 1.98 8 3 C6.02 3.33 4.04 3.66 2 4 C1.34 2.68 0.68 1.36 0 0 Z " fill="#FED918" transform="translate(449,78)"/>
<path d="M0 0 C2.97 0 5.94 0 9 0 C9 0.99 9 1.98 9 3 C6.03 3 3.06 3 0 3 C0 2.01 0 1.02 0 0 Z " fill="#FFDF3C" transform="translate(506,71)"/>
<path d="M0 0 C2.97 0 5.94 0 9 0 C9 0.99 9 1.98 9 3 C6.03 3 3.06 3 0 3 C0 2.01 0 1.02 0 0 Z " fill="#FFDF3C" transform="translate(477,71)"/>
<path d="M0 0 C2.97 0 5.94 0 9 0 C9 0.99 9 1.98 9 3 C6.03 3 3.06 3 0 3 C0 2.01 0 1.02 0 0 Z " fill="#FFE14E" transform="translate(449,68)"/>
<path d="M0 0 C2.97 0 5.94 0 9 0 C9 0.99 9 1.98 9 3 C6.03 3 3.06 3 0 3 C0 2.01 0 1.02 0 0 Z " fill="#FFE987" transform="translate(449,59)"/>
<path d="M0 0 C-0.639375 0.309375 -1.27875 0.61875 -1.9375 0.9375 C-3.93610821 1.8345163 -3.93610821 1.8345163 -5 3 C-5.23075082 4.34747084 -5.41153063 5.70377565 -5.5625 7.0625 C-5.7790625 9.0115625 -5.7790625 9.0115625 -6 11 C-7.5625 9.8125 -7.5625 9.8125 -9 8 C-8.85873193 5.17463858 -8.3554723 3.51543484 -6.75 1.1875 C-4.41988723 -0.39364795 -2.75498245 -0.22337696 0 0 Z " fill="#716B6D" transform="translate(463,323)"/>
<path d="M0 0 C0.66 0 1.32 0 2 0 C1.01 3.3 0.02 6.6 -1 10 C-3 6 -3 6 -2.75 3.875 C-2 2 -2 2 0 0 Z " fill="#E9C3D9" transform="translate(138,496)"/>
<path d="M0 0 C1.98 0.495 1.98 0.495 4 1 C4 2.32 4 3.64 4 5 C2.35 5 0.7 5 -1 5 C-0.67 3.35 -0.34 1.7 0 0 Z " fill="#656163" transform="translate(550,484)"/>
<path d="M0 0 C1.32 0.33 2.64 0.66 4 1 C3.67 2.32 3.34 3.64 3 5 C1.35 4.67 -0.3 4.34 -2 4 C-1.34 2.68 -0.68 1.36 0 0 Z " fill="#656163" transform="translate(457,484)"/>
<path d="M0 0 C1.98 0.495 1.98 0.495 4 1 C4 2.32 4 3.64 4 5 C2.35 5 0.7 5 -1 5 C-0.67 3.35 -0.34 1.7 0 0 Z " fill="#646061" transform="translate(394,484)"/>
<path d="M0 0 C1.98 0.99 1.98 0.99 4 2 C3.625 4.4375 3.625 4.4375 3 7 C2.01 7.495 2.01 7.495 1 8 C0.67 5.36 0.34 2.72 0 0 Z " fill="#F1D3DE" transform="translate(133,491)"/>
<path d="M0 0 C4.47400242 -0.36275695 4.47400242 -0.36275695 6.8125 1.25 C8 3 8 3 8 7 C7.01 7 6.02 7 5 7 C4.67 5.02 4.34 3.04 4 1 C2.68 0.67 1.36 0.34 0 0 Z " fill="#6F696B" transform="translate(516,323)"/>
<path d="M0 0 C0.66 0.33 1.32 0.66 2 1 C1.34 1.66 0.68 2.32 0 3 C0.99 3.66 1.98 4.32 3 5 C1.02 5.33 -0.96 5.66 -3 6 C-3 5.34 -3 4.68 -3 4 C-4.65 4 -6.3 4 -8 4 C-8 3.67 -8 3.34 -8 3 C-6.865625 2.690625 -5.73125 2.38125 -4.5625 2.0625 C-1.21224901 1.37075469 -1.21224901 1.37075469 0 0 Z " fill="#FFB9DB" transform="translate(719,410)"/>
<path d="M0 0 C0.66 0.33 1.32 0.66 2 1 C1.360625 1.474375 0.72125 1.94875 0.0625 2.4375 C-2.84850272 6.05420035 -2.80649782 9.47204894 -3 14 C-3.33 14 -3.66 14 -4 14 C-4.63019694 4.82713348 -4.63019694 4.82713348 -2 1.375 C-1.34 0.92125 -0.68 0.4675 0 0 Z " fill="#FF8DC5" transform="translate(689,401)"/>
<path d="M0 0 C0.99 0.33 1.98 0.66 3 1 C2.34 1.66 1.68 2.32 1 3 C0.35232207 5.57061311 0.35232207 5.57061311 0 8 C-0.66 6.68 -1.32 5.36 -2 4 C-2.99 4.66 -3.98 5.32 -5 6 C-3.63016497 2.83884224 -3.0109362 2.0072908 0 0 Z " fill="#FFC7E1" transform="translate(617,396)"/>
<path d="M0 0 C-0.99 1.485 -0.99 1.485 -2 3 C-5.125 3.1875 -5.125 3.1875 -8 3 C-8 2.34 -8 1.68 -8 1 C-3.375 -1.125 -3.375 -1.125 0 0 Z " fill="#FFDAEB" transform="translate(707,414)"/>
<path d="M0 0 C0.99 0 1.98 0 3 0 C3 1.32 3 2.64 3 4 C1.35 4.33 -0.3 4.66 -2 5 C-1.34 3.35 -0.68 1.7 0 0 Z " fill="#545253" transform="translate(325,492)"/>
<path d="M0 0 C1.32 0 2.64 0 4 0 C4 1.32 4 2.64 4 4 C2.35 4.33 0.7 4.66 -1 5 C-0.67 3.35 -0.34 1.7 0 0 Z " fill="#5C5A5A" transform="translate(217,492)"/>
<path d="M0 0 C1.98 0 3.96 0 6 0 C4.68 0.33 3.36 0.66 2 1 C2 1.66 2 2.32 2 3 C3.32 3.33 4.64 3.66 6 4 C3.69 3.67 1.38 3.34 -1 3 C-0.67 2.01 -0.34 1.02 0 0 Z " fill="#FFB8DB" transform="translate(697,414)"/>
<path d="M0 0 C2 3 2 3 1.625 5.6875 C1.41875 6.450625 1.2125 7.21375 1 8 C0.34 8 -0.32 8 -1 8 C-1.125 2.25 -1.125 2.25 0 0 Z " fill="#777173" transform="translate(412,331)"/>
</svg>
